G04 EAGLE Gerber X2 export*
%TF.Part,Single*%
%TF.FileFunction,Copper,L2,Inr,Mixed*%
%TF.FilePolarity,Positive*%
%TF.GenerationSoftware,Autodesk,EAGLE,9.5.2*%
%TF.CreationDate,2020-06-02T19:58:31Z*%
G75*
%MOIN*%
%FSLAX36Y36*%
%LPD*%
%INInternal Plane 1*%
%AMOC8*
5,1,8,0,0,1.08239X$1,22.5*%
G01*
%ADD10C,0.060000*%
%ADD11C,0.018000*%
%ADD12C,0.005000*%


D10*
X150000Y-1191000D03*
X150000Y-1091000D03*
X250000Y-1191000D03*
X250000Y-1091000D03*
X350000Y-1191000D03*
X350000Y-1091000D03*
X450000Y-1191000D03*
X450000Y-1091000D03*
X550000Y-1191000D03*
X550000Y-1091000D03*
X650000Y-1191000D03*
X650000Y-1091000D03*
X750000Y-1191000D03*
X750000Y-1091000D03*
X850000Y-1191000D03*
X850000Y-1091000D03*
D11*
X507000Y462000D03*
X407000Y304000D03*
D12*
X407000Y-834000D01*
X150000Y-1091000D01*
D11*
X425000Y323000D03*
D12*
X425000Y-916000D01*
X250000Y-1091000D01*
D11*
X443000Y304000D03*
D12*
X443000Y-998000D01*
X350000Y-1091000D01*
D11*
X461000Y323000D03*
D12*
X461000Y-1080000D01*
X450000Y-1091000D01*
D11*
X478000Y304000D03*
D12*
X478000Y-1019000D01*
X550000Y-1091000D01*
D11*
X494000Y323000D03*
D12*
X494000Y311335D01*
X494500Y310835D01*
X494500Y-935500D02*
X650000Y-1091000D01*
X494500Y-935500D02*
X494500Y310835D01*
D11*
X511000Y305000D03*
D12*
X511000Y-852000D01*
X750000Y-1091000D01*
D11*
X527000Y324000D03*
D12*
X527000Y312335D01*
X527500Y311835D01*
X527500Y-768500D02*
X850000Y-1091000D01*
X527500Y-768500D02*
X527500Y311835D01*
D11*
X544000Y306000D03*
X561000Y324000D03*
X389000Y453000D03*
M02*
