M48
;GenerationSoftware,Autodesk,EAGLE,9.5.2*%
;CreationDate,2020-06-02T19:58:31Z*%
FMAT,2
ICI,OFF
INCH,TZ,00.0000
T2C0.0100
T1C0.0400
%
G90
M72
T1
X1500Y-11910
X1500Y-10910
X2500Y-11910
X2500Y-10910
X3500Y-11910
X3500Y-10910
X4500Y-11910
X4500Y-10910
X5500Y-11910
X5500Y-10910
X6500Y-11910
X6500Y-10910
X7500Y-11910
X7500Y-10910
X8500Y-11910
X8500Y-10910
T2
X5070Y4620
X4070Y3040
X4250Y3230
X4430Y3040
X4610Y3230
X4780Y3040
X4940Y3230
X5110Y3050
X5270Y3240
X5440Y3060
X5610Y3240
X3890Y4530
M30