G04 EAGLE Gerber X2 export*
%TF.Part,Single*%
%TF.FileFunction,Copper,L4,Bot,Mixed*%
%TF.FilePolarity,Positive*%
%TF.GenerationSoftware,Autodesk,EAGLE,9.5.2*%
%TF.CreationDate,2020-06-02T19:58:31Z*%
G75*
%MOIN*%
%FSLAX36Y36*%
%LPD*%
%INBottom Copper Layer*%
%AMOC8*
5,1,8,0,0,1.08239X$1,22.5*%
G01*
%ADD10C,0.074000*%
%ADD11C,0.018000*%

G36*
X1231577Y-1411487D02*
X1231577Y-1411487D01*
X1231654Y-1411495D01*
X1232053Y-1411409D01*
X1232456Y-1411343D01*
X1232524Y-1411307D01*
X1232600Y-1411290D01*
X1232952Y-1411081D01*
X1233312Y-1410890D01*
X1233366Y-1410834D01*
X1233432Y-1410794D01*
X1233698Y-1410484D01*
X1233980Y-1410188D01*
X1234012Y-1410117D01*
X1234063Y-1410058D01*
X1234216Y-1409680D01*
X1234388Y-1409309D01*
X1234397Y-1409232D01*
X1234426Y-1409160D01*
X1234499Y-1408500D01*
X1234499Y706500D01*
X1234487Y706577D01*
X1234495Y706654D01*
X1234409Y707053D01*
X1234343Y707456D01*
X1234307Y707524D01*
X1234290Y707600D01*
X1234081Y707952D01*
X1233890Y708312D01*
X1233834Y708366D01*
X1233794Y708432D01*
X1233484Y708698D01*
X1233188Y708980D01*
X1233117Y709012D01*
X1233058Y709063D01*
X1232680Y709216D01*
X1232309Y709388D01*
X1232232Y709397D01*
X1232160Y709426D01*
X1231500Y709499D01*
X-231500Y709499D01*
X-231577Y709487D01*
X-231654Y709495D01*
X-232053Y709409D01*
X-232456Y709343D01*
X-232524Y709307D01*
X-232600Y709290D01*
X-232952Y709081D01*
X-233312Y708890D01*
X-233366Y708834D01*
X-233432Y708794D01*
X-233698Y708484D01*
X-233980Y708188D01*
X-234012Y708117D01*
X-234063Y708058D01*
X-234216Y707680D01*
X-234388Y707309D01*
X-234397Y707232D01*
X-234426Y707160D01*
X-234499Y706500D01*
X-234499Y-1408500D01*
X-234487Y-1408577D01*
X-234495Y-1408654D01*
X-234409Y-1409053D01*
X-234343Y-1409456D01*
X-234307Y-1409524D01*
X-234290Y-1409600D01*
X-234081Y-1409952D01*
X-233890Y-1410312D01*
X-233834Y-1410366D01*
X-233794Y-1410432D01*
X-233484Y-1410698D01*
X-233188Y-1410980D01*
X-233117Y-1411012D01*
X-233058Y-1411063D01*
X-232680Y-1411216D01*
X-232309Y-1411388D01*
X-232232Y-1411397D01*
X-232160Y-1411426D01*
X-231500Y-1411499D01*
X1231500Y-1411499D01*
X1231577Y-1411487D01*
G37*
%LPC*%
G36*
X1134486Y-1327993D02*
X1134486Y-1327993D01*
X1105821Y-1316119D01*
X1083881Y-1294179D01*
X1072007Y-1265514D01*
X1072007Y-1234486D01*
X1083881Y-1205821D01*
X1105821Y-1183881D01*
X1134486Y-1172007D01*
X1165514Y-1172007D01*
X1194179Y-1183881D01*
X1216119Y-1205821D01*
X1227993Y-1234486D01*
X1227993Y-1265514D01*
X1216119Y-1294179D01*
X1194179Y-1316119D01*
X1165514Y-1327993D01*
X1134486Y-1327993D01*
G37*
%LPD*%
%LPC*%
G36*
X-165514Y-1327993D02*
X-165514Y-1327993D01*
X-194179Y-1316119D01*
X-216119Y-1294179D01*
X-227993Y-1265514D01*
X-227993Y-1234486D01*
X-216119Y-1205821D01*
X-194179Y-1183881D01*
X-165514Y-1172007D01*
X-134486Y-1172007D01*
X-105821Y-1183881D01*
X-83881Y-1205821D01*
X-72007Y-1234486D01*
X-72007Y-1265514D01*
X-83881Y-1294179D01*
X-105821Y-1316119D01*
X-134486Y-1327993D01*
X-165514Y-1327993D01*
G37*
%LPD*%
%LPC*%
G36*
X-165514Y-77993D02*
X-165514Y-77993D01*
X-194179Y-66119D01*
X-216119Y-44179D01*
X-227993Y-15514D01*
X-227993Y15514D01*
X-216119Y44179D01*
X-194179Y66119D01*
X-165514Y77993D01*
X-134486Y77993D01*
X-105821Y66119D01*
X-83881Y44179D01*
X-72007Y15514D01*
X-72007Y-15514D01*
X-83881Y-44179D01*
X-105821Y-66119D01*
X-134486Y-77993D01*
X-165514Y-77993D01*
G37*
%LPD*%
%LPC*%
G36*
X1134486Y-77993D02*
X1134486Y-77993D01*
X1105821Y-66119D01*
X1083881Y-44179D01*
X1072007Y-15514D01*
X1072007Y15514D01*
X1083881Y44179D01*
X1105821Y66119D01*
X1134486Y77993D01*
X1165514Y77993D01*
X1194179Y66119D01*
X1216119Y44179D01*
X1227993Y15514D01*
X1227993Y-15514D01*
X1216119Y-44179D01*
X1194179Y-66119D01*
X1165514Y-77993D01*
X1134486Y-77993D01*
G37*
%LPD*%
%LPC*%
G36*
X401201Y289999D02*
X401201Y289999D01*
X392999Y298201D01*
X392999Y309799D01*
X401201Y318001D01*
X408000Y318001D01*
X408077Y318013D01*
X408154Y318005D01*
X408553Y318091D01*
X408956Y318157D01*
X409024Y318193D01*
X409100Y318210D01*
X409452Y318419D01*
X409812Y318610D01*
X409866Y318666D01*
X409932Y318706D01*
X410198Y319016D01*
X410480Y319312D01*
X410512Y319383D01*
X410563Y319442D01*
X410716Y319820D01*
X410888Y320191D01*
X410897Y320268D01*
X410926Y320340D01*
X410999Y321000D01*
X410999Y328799D01*
X419201Y337001D01*
X430799Y337001D01*
X439001Y328799D01*
X439001Y321000D01*
X439013Y320923D01*
X439005Y320846D01*
X439091Y320446D01*
X439157Y320044D01*
X439193Y319975D01*
X439210Y319899D01*
X439419Y319548D01*
X439610Y319188D01*
X439666Y319134D01*
X439706Y319068D01*
X440016Y318802D01*
X440312Y318520D01*
X440383Y318487D01*
X440442Y318437D01*
X440820Y318284D01*
X441191Y318112D01*
X441268Y318103D01*
X441340Y318074D01*
X442000Y318001D01*
X444000Y318001D01*
X444077Y318013D01*
X444154Y318005D01*
X444553Y318091D01*
X444956Y318157D01*
X445024Y318193D01*
X445100Y318210D01*
X445452Y318419D01*
X445812Y318610D01*
X445866Y318666D01*
X445932Y318706D01*
X446198Y319016D01*
X446480Y319312D01*
X446512Y319383D01*
X446563Y319442D01*
X446716Y319820D01*
X446888Y320191D01*
X446897Y320268D01*
X446926Y320340D01*
X446999Y321000D01*
X446999Y328799D01*
X455201Y337001D01*
X466799Y337001D01*
X475379Y328421D01*
X475442Y328375D01*
X475491Y328315D01*
X475835Y328093D01*
X476166Y327855D01*
X476240Y327832D01*
X476305Y327790D01*
X476701Y327690D01*
X477092Y327570D01*
X477169Y327572D01*
X477244Y327553D01*
X477651Y327585D01*
X478060Y327595D01*
X478133Y327622D01*
X478210Y327628D01*
X478586Y327787D01*
X478970Y327927D01*
X479030Y327976D01*
X479102Y328006D01*
X479621Y328421D01*
X488201Y337001D01*
X499799Y337001D01*
X507879Y328921D01*
X507943Y328875D01*
X507991Y328815D01*
X508163Y328704D01*
X508313Y328562D01*
X508394Y328524D01*
X508411Y328509D01*
X508503Y328472D01*
X508666Y328355D01*
X508741Y328332D01*
X508805Y328291D01*
X509003Y328241D01*
X509191Y328153D01*
X509395Y328131D01*
X509592Y328070D01*
X509670Y328072D01*
X509744Y328053D01*
X509948Y328069D01*
X510154Y328046D01*
X510355Y328090D01*
X510560Y328095D01*
X510634Y328122D01*
X510710Y328128D01*
X510898Y328207D01*
X511100Y328251D01*
X511277Y328357D01*
X511470Y328427D01*
X511531Y328476D01*
X511602Y328506D01*
X511783Y328650D01*
X511843Y328682D01*
X511869Y328710D01*
X511932Y328748D01*
X511994Y328819D01*
X512121Y328921D01*
X521201Y338001D01*
X532799Y338001D01*
X541001Y329799D01*
X541001Y323000D01*
X541013Y322923D01*
X541005Y322846D01*
X541091Y322446D01*
X541157Y322044D01*
X541193Y321975D01*
X541210Y321899D01*
X541419Y321548D01*
X541610Y321188D01*
X541666Y321134D01*
X541706Y321068D01*
X542016Y320802D01*
X542312Y320520D01*
X542383Y320487D01*
X542442Y320437D01*
X542820Y320284D01*
X543191Y320112D01*
X543268Y320103D01*
X543340Y320074D01*
X544000Y320001D01*
X544077Y320013D01*
X544154Y320005D01*
X544553Y320091D01*
X544956Y320157D01*
X545024Y320193D01*
X545100Y320210D01*
X545452Y320419D01*
X545812Y320610D01*
X545866Y320666D01*
X545932Y320706D01*
X546198Y321016D01*
X546480Y321312D01*
X546512Y321383D01*
X546563Y321442D01*
X546716Y321820D01*
X546888Y322191D01*
X546897Y322268D01*
X546926Y322340D01*
X546999Y323000D01*
X546999Y329799D01*
X555201Y338001D01*
X566799Y338001D01*
X575001Y329799D01*
X575001Y318201D01*
X566799Y309999D01*
X561000Y309999D01*
X560923Y309987D01*
X560846Y309995D01*
X560446Y309909D01*
X560044Y309843D01*
X559975Y309807D01*
X559899Y309790D01*
X559548Y309581D01*
X559188Y309390D01*
X559134Y309334D01*
X559068Y309294D01*
X558802Y308984D01*
X558520Y308688D01*
X558487Y308617D01*
X558437Y308558D01*
X558284Y308180D01*
X558112Y307809D01*
X558103Y307732D01*
X558074Y307660D01*
X558001Y307000D01*
X558001Y300201D01*
X549799Y291999D01*
X538201Y291999D01*
X530121Y300079D01*
X530057Y300125D01*
X530009Y300185D01*
X529837Y300296D01*
X529687Y300438D01*
X529501Y300525D01*
X529334Y300645D01*
X529259Y300668D01*
X529195Y300709D01*
X528997Y300759D01*
X528809Y300847D01*
X528605Y300869D01*
X528408Y300930D01*
X528330Y300928D01*
X528255Y300947D01*
X528052Y300931D01*
X527846Y300954D01*
X527645Y300910D01*
X527440Y300905D01*
X527366Y300878D01*
X527290Y300872D01*
X527102Y300792D01*
X526899Y300749D01*
X526723Y300643D01*
X526530Y300573D01*
X526469Y300524D01*
X526398Y300494D01*
X526179Y300319D01*
X526068Y300252D01*
X526006Y300181D01*
X525879Y300079D01*
X516799Y290999D01*
X505201Y290999D01*
X497121Y299079D01*
X497057Y299125D01*
X497009Y299185D01*
X496837Y299296D01*
X496687Y299438D01*
X496501Y299525D01*
X496334Y299645D01*
X496259Y299668D01*
X496195Y299709D01*
X495997Y299759D01*
X495809Y299847D01*
X495605Y299869D01*
X495408Y299930D01*
X495330Y299928D01*
X495255Y299947D01*
X495052Y299931D01*
X494846Y299954D01*
X494645Y299910D01*
X494440Y299905D01*
X494366Y299878D01*
X494290Y299872D01*
X494102Y299792D01*
X493899Y299749D01*
X493723Y299643D01*
X493530Y299573D01*
X493469Y299524D01*
X493398Y299494D01*
X493179Y299319D01*
X493068Y299252D01*
X493006Y299181D01*
X492879Y299079D01*
X483799Y289999D01*
X472201Y289999D01*
X463999Y298201D01*
X463999Y306000D01*
X463987Y306077D01*
X463995Y306154D01*
X463909Y306553D01*
X463843Y306956D01*
X463807Y307024D01*
X463790Y307100D01*
X463581Y307452D01*
X463390Y307812D01*
X463334Y307866D01*
X463294Y307932D01*
X462984Y308198D01*
X462688Y308480D01*
X462617Y308512D01*
X462558Y308563D01*
X462180Y308716D01*
X461809Y308888D01*
X461732Y308897D01*
X461660Y308926D01*
X461000Y308999D01*
X460000Y308999D01*
X459923Y308987D01*
X459846Y308995D01*
X459446Y308909D01*
X459044Y308843D01*
X458975Y308807D01*
X458899Y308790D01*
X458548Y308581D01*
X458188Y308390D01*
X458134Y308334D01*
X458068Y308294D01*
X457802Y307984D01*
X457520Y307688D01*
X457487Y307617D01*
X457437Y307558D01*
X457284Y307180D01*
X457112Y306809D01*
X457103Y306732D01*
X457074Y306660D01*
X457001Y306000D01*
X457001Y298201D01*
X448799Y289999D01*
X437201Y289999D01*
X428999Y298201D01*
X428999Y306000D01*
X428987Y306077D01*
X428995Y306154D01*
X428909Y306553D01*
X428843Y306956D01*
X428807Y307024D01*
X428790Y307100D01*
X428581Y307452D01*
X428390Y307812D01*
X428334Y307866D01*
X428294Y307932D01*
X427984Y308198D01*
X427688Y308480D01*
X427617Y308512D01*
X427558Y308563D01*
X427180Y308716D01*
X426809Y308888D01*
X426732Y308897D01*
X426660Y308926D01*
X426000Y308999D01*
X424000Y308999D01*
X423923Y308987D01*
X423846Y308995D01*
X423446Y308909D01*
X423044Y308843D01*
X422975Y308807D01*
X422899Y308790D01*
X422548Y308581D01*
X422188Y308390D01*
X422134Y308334D01*
X422068Y308294D01*
X421802Y307984D01*
X421520Y307688D01*
X421487Y307617D01*
X421437Y307558D01*
X421284Y307180D01*
X421112Y306809D01*
X421103Y306732D01*
X421074Y306660D01*
X421001Y306000D01*
X421001Y298201D01*
X412799Y289999D01*
X401201Y289999D01*
G37*
%LPD*%
%LPC*%
G36*
X841645Y-1133001D02*
X841645Y-1133001D01*
X826209Y-1126607D01*
X814393Y-1114791D01*
X807999Y-1099355D01*
X807999Y-1082645D01*
X814393Y-1067209D01*
X826209Y-1055393D01*
X841645Y-1048999D01*
X858355Y-1048999D01*
X873791Y-1055393D01*
X885607Y-1067209D01*
X892001Y-1082645D01*
X892001Y-1099355D01*
X885607Y-1114791D01*
X873791Y-1126607D01*
X858355Y-1133001D01*
X841645Y-1133001D01*
G37*
%LPD*%
%LPC*%
G36*
X641645Y-1133001D02*
X641645Y-1133001D01*
X626209Y-1126607D01*
X614393Y-1114791D01*
X607999Y-1099355D01*
X607999Y-1082645D01*
X614393Y-1067209D01*
X626209Y-1055393D01*
X641645Y-1048999D01*
X658355Y-1048999D01*
X673791Y-1055393D01*
X685607Y-1067209D01*
X692001Y-1082645D01*
X692001Y-1099355D01*
X685607Y-1114791D01*
X673791Y-1126607D01*
X658355Y-1133001D01*
X641645Y-1133001D01*
G37*
%LPD*%
%LPC*%
G36*
X541645Y-1133001D02*
X541645Y-1133001D01*
X526209Y-1126607D01*
X514393Y-1114791D01*
X507999Y-1099355D01*
X507999Y-1082645D01*
X514393Y-1067209D01*
X526209Y-1055393D01*
X541645Y-1048999D01*
X558355Y-1048999D01*
X573791Y-1055393D01*
X585607Y-1067209D01*
X592001Y-1082645D01*
X592001Y-1099355D01*
X585607Y-1114791D01*
X573791Y-1126607D01*
X558355Y-1133001D01*
X541645Y-1133001D01*
G37*
%LPD*%
%LPC*%
G36*
X441645Y-1133001D02*
X441645Y-1133001D01*
X426209Y-1126607D01*
X414393Y-1114791D01*
X407999Y-1099355D01*
X407999Y-1082645D01*
X414393Y-1067209D01*
X426209Y-1055393D01*
X441645Y-1048999D01*
X458355Y-1048999D01*
X473791Y-1055393D01*
X485607Y-1067209D01*
X492001Y-1082645D01*
X492001Y-1099355D01*
X485607Y-1114791D01*
X473791Y-1126607D01*
X458355Y-1133001D01*
X441645Y-1133001D01*
G37*
%LPD*%
%LPC*%
G36*
X341645Y-1133001D02*
X341645Y-1133001D01*
X326209Y-1126607D01*
X314393Y-1114791D01*
X307999Y-1099355D01*
X307999Y-1082645D01*
X314393Y-1067209D01*
X326209Y-1055393D01*
X341645Y-1048999D01*
X358355Y-1048999D01*
X373791Y-1055393D01*
X385607Y-1067209D01*
X392001Y-1082645D01*
X392001Y-1099355D01*
X385607Y-1114791D01*
X373791Y-1126607D01*
X358355Y-1133001D01*
X341645Y-1133001D01*
G37*
%LPD*%
%LPC*%
G36*
X241645Y-1133001D02*
X241645Y-1133001D01*
X226209Y-1126607D01*
X214393Y-1114791D01*
X207999Y-1099355D01*
X207999Y-1082645D01*
X214393Y-1067209D01*
X226209Y-1055393D01*
X241645Y-1048999D01*
X258355Y-1048999D01*
X273791Y-1055393D01*
X285607Y-1067209D01*
X292001Y-1082645D01*
X292001Y-1099355D01*
X285607Y-1114791D01*
X273791Y-1126607D01*
X258355Y-1133001D01*
X241645Y-1133001D01*
G37*
%LPD*%
%LPC*%
G36*
X141645Y-1133001D02*
X141645Y-1133001D01*
X126209Y-1126607D01*
X114393Y-1114791D01*
X107999Y-1099355D01*
X107999Y-1082645D01*
X114393Y-1067209D01*
X126209Y-1055393D01*
X141645Y-1048999D01*
X158355Y-1048999D01*
X173791Y-1055393D01*
X185607Y-1067209D01*
X192001Y-1082645D01*
X192001Y-1099355D01*
X185607Y-1114791D01*
X173791Y-1126607D01*
X158355Y-1133001D01*
X141645Y-1133001D01*
G37*
%LPD*%
%LPC*%
G36*
X741645Y-1133001D02*
X741645Y-1133001D01*
X726209Y-1126607D01*
X714393Y-1114791D01*
X707999Y-1099355D01*
X707999Y-1082645D01*
X714393Y-1067209D01*
X726209Y-1055393D01*
X741645Y-1048999D01*
X758355Y-1048999D01*
X773791Y-1055393D01*
X785607Y-1067209D01*
X792001Y-1082645D01*
X792001Y-1099355D01*
X785607Y-1114791D01*
X773791Y-1126607D01*
X758355Y-1133001D01*
X741645Y-1133001D01*
G37*
%LPD*%
%LPC*%
G36*
X141645Y-1233001D02*
X141645Y-1233001D01*
X126209Y-1226607D01*
X114393Y-1214791D01*
X107999Y-1199355D01*
X107999Y-1182645D01*
X114393Y-1167209D01*
X126209Y-1155393D01*
X141645Y-1148999D01*
X158355Y-1148999D01*
X173791Y-1155393D01*
X185607Y-1167209D01*
X192001Y-1182645D01*
X192001Y-1199355D01*
X185607Y-1214791D01*
X173791Y-1226607D01*
X158355Y-1233001D01*
X141645Y-1233001D01*
G37*
%LPD*%
%LPC*%
G36*
X841645Y-1233001D02*
X841645Y-1233001D01*
X826209Y-1226607D01*
X814393Y-1214791D01*
X807999Y-1199355D01*
X807999Y-1182645D01*
X814393Y-1167209D01*
X826209Y-1155393D01*
X841645Y-1148999D01*
X858355Y-1148999D01*
X873791Y-1155393D01*
X885607Y-1167209D01*
X892001Y-1182645D01*
X892001Y-1199355D01*
X885607Y-1214791D01*
X873791Y-1226607D01*
X858355Y-1233001D01*
X841645Y-1233001D01*
G37*
%LPD*%
%LPC*%
G36*
X741645Y-1233001D02*
X741645Y-1233001D01*
X726209Y-1226607D01*
X714393Y-1214791D01*
X707999Y-1199355D01*
X707999Y-1182645D01*
X714393Y-1167209D01*
X726209Y-1155393D01*
X741645Y-1148999D01*
X758355Y-1148999D01*
X773791Y-1155393D01*
X785607Y-1167209D01*
X792001Y-1182645D01*
X792001Y-1199355D01*
X785607Y-1214791D01*
X773791Y-1226607D01*
X758355Y-1233001D01*
X741645Y-1233001D01*
G37*
%LPD*%
%LPC*%
G36*
X641645Y-1233001D02*
X641645Y-1233001D01*
X626209Y-1226607D01*
X614393Y-1214791D01*
X607999Y-1199355D01*
X607999Y-1182645D01*
X614393Y-1167209D01*
X626209Y-1155393D01*
X641645Y-1148999D01*
X658355Y-1148999D01*
X673791Y-1155393D01*
X685607Y-1167209D01*
X692001Y-1182645D01*
X692001Y-1199355D01*
X685607Y-1214791D01*
X673791Y-1226607D01*
X658355Y-1233001D01*
X641645Y-1233001D01*
G37*
%LPD*%
%LPC*%
G36*
X541645Y-1233001D02*
X541645Y-1233001D01*
X526209Y-1226607D01*
X514393Y-1214791D01*
X507999Y-1199355D01*
X507999Y-1182645D01*
X514393Y-1167209D01*
X526209Y-1155393D01*
X541645Y-1148999D01*
X558355Y-1148999D01*
X573791Y-1155393D01*
X585607Y-1167209D01*
X592001Y-1182645D01*
X592001Y-1199355D01*
X585607Y-1214791D01*
X573791Y-1226607D01*
X558355Y-1233001D01*
X541645Y-1233001D01*
G37*
%LPD*%
%LPC*%
G36*
X441645Y-1233001D02*
X441645Y-1233001D01*
X426209Y-1226607D01*
X414393Y-1214791D01*
X407999Y-1199355D01*
X407999Y-1182645D01*
X414393Y-1167209D01*
X426209Y-1155393D01*
X441645Y-1148999D01*
X458355Y-1148999D01*
X473791Y-1155393D01*
X485607Y-1167209D01*
X492001Y-1182645D01*
X492001Y-1199355D01*
X485607Y-1214791D01*
X473791Y-1226607D01*
X458355Y-1233001D01*
X441645Y-1233001D01*
G37*
%LPD*%
%LPC*%
G36*
X341645Y-1233001D02*
X341645Y-1233001D01*
X326209Y-1226607D01*
X314393Y-1214791D01*
X307999Y-1199355D01*
X307999Y-1182645D01*
X314393Y-1167209D01*
X326209Y-1155393D01*
X341645Y-1148999D01*
X358355Y-1148999D01*
X373791Y-1155393D01*
X385607Y-1167209D01*
X392001Y-1182645D01*
X392001Y-1199355D01*
X385607Y-1214791D01*
X373791Y-1226607D01*
X358355Y-1233001D01*
X341645Y-1233001D01*
G37*
%LPD*%
%LPC*%
G36*
X255999Y-1196999D02*
X255999Y-1196999D01*
X296636Y-1196999D01*
X295843Y-1202006D01*
X293557Y-1209042D01*
X290199Y-1215634D01*
X285850Y-1221619D01*
X280619Y-1226850D01*
X274634Y-1231199D01*
X268042Y-1234557D01*
X261006Y-1236843D01*
X255999Y-1237636D01*
X255999Y-1196999D01*
G37*
%LPD*%
%LPC*%
G36*
X255999Y-1185001D02*
X255999Y-1185001D01*
X255999Y-1144364D01*
X261006Y-1145157D01*
X268042Y-1147443D01*
X274634Y-1150801D01*
X280619Y-1155150D01*
X285850Y-1160381D01*
X290199Y-1166366D01*
X293557Y-1172958D01*
X295843Y-1179994D01*
X296636Y-1185001D01*
X255999Y-1185001D01*
G37*
%LPD*%
%LPC*%
G36*
X238994Y-1236843D02*
X238994Y-1236843D01*
X231958Y-1234557D01*
X225366Y-1231199D01*
X219381Y-1226850D01*
X214150Y-1221619D01*
X209801Y-1215634D01*
X206443Y-1209042D01*
X204157Y-1202006D01*
X203364Y-1196999D01*
X244001Y-1196999D01*
X244001Y-1237636D01*
X238994Y-1236843D01*
G37*
%LPD*%
%LPC*%
G36*
X203364Y-1185001D02*
X203364Y-1185001D01*
X204157Y-1179994D01*
X206443Y-1172958D01*
X209801Y-1166366D01*
X214150Y-1160381D01*
X219381Y-1155150D01*
X225366Y-1150801D01*
X231958Y-1147443D01*
X238994Y-1145157D01*
X244001Y-1144364D01*
X244001Y-1185001D01*
X203364Y-1185001D01*
G37*
%LPD*%
%LPC*%
G36*
X383201Y438999D02*
X383201Y438999D01*
X374999Y447201D01*
X374999Y458799D01*
X383201Y467001D01*
X394799Y467001D01*
X403001Y458799D01*
X403001Y447201D01*
X394799Y438999D01*
X383201Y438999D01*
G37*
%LPD*%
%LPC*%
G36*
X249999Y-1191001D02*
X249999Y-1191001D01*
X249999Y-1190999D01*
X250001Y-1190999D01*
X250001Y-1191001D01*
X249999Y-1191001D01*
G37*
%LPD*%
D10*
X150000Y-1191000D03*
X150000Y-1091000D03*
X250000Y-1191000D03*
X250000Y-1091000D03*
X350000Y-1191000D03*
X350000Y-1091000D03*
X450000Y-1191000D03*
X450000Y-1091000D03*
X550000Y-1191000D03*
X550000Y-1091000D03*
X650000Y-1191000D03*
X650000Y-1091000D03*
X750000Y-1191000D03*
X750000Y-1091000D03*
X850000Y-1191000D03*
X850000Y-1091000D03*
D11*
X507000Y462000D03*
X407000Y304000D03*
X425000Y323000D03*
X443000Y304000D03*
X461000Y323000D03*
X478000Y304000D03*
X494000Y323000D03*
X511000Y305000D03*
X527000Y324000D03*
X544000Y306000D03*
X561000Y324000D03*
X389000Y453000D03*
M02*
