G04 EAGLE Gerber X2 export*
%TF.Part,Single*%
%TF.FileFunction,Copper,L1,Top,Mixed*%
%TF.FilePolarity,Positive*%
%TF.GenerationSoftware,Autodesk,EAGLE,9.5.2*%
%TF.CreationDate,2020-06-02T19:58:31Z*%
G75*
%MOIN*%
%FSLAX36Y36*%
%LPD*%
%INTop Copper Layer*%
%AMOC8*
5,1,8,0,0,1.08239X$1,22.5*%
G01*
%ADD10R,0.008000X0.008000*%
%ADD11R,0.025000X0.050000*%
%ADD12C,0.074000*%
%ADD13R,0.027559X0.023622*%
%ADD14C,0.005000*%
%ADD15C,0.018000*%
%ADD16C,0.006000*%

G36*
X1231577Y-1411487D02*
X1231577Y-1411487D01*
X1231654Y-1411495D01*
X1232053Y-1411409D01*
X1232456Y-1411343D01*
X1232524Y-1411307D01*
X1232600Y-1411290D01*
X1232952Y-1411081D01*
X1233312Y-1410890D01*
X1233366Y-1410834D01*
X1233432Y-1410794D01*
X1233698Y-1410484D01*
X1233980Y-1410188D01*
X1234012Y-1410117D01*
X1234063Y-1410058D01*
X1234216Y-1409680D01*
X1234388Y-1409309D01*
X1234397Y-1409232D01*
X1234426Y-1409160D01*
X1234499Y-1408500D01*
X1234499Y706500D01*
X1234487Y706577D01*
X1234495Y706654D01*
X1234409Y707053D01*
X1234343Y707456D01*
X1234307Y707524D01*
X1234290Y707600D01*
X1234081Y707952D01*
X1233890Y708312D01*
X1233834Y708366D01*
X1233794Y708432D01*
X1233484Y708698D01*
X1233188Y708980D01*
X1233117Y709012D01*
X1233058Y709063D01*
X1232680Y709216D01*
X1232309Y709388D01*
X1232232Y709397D01*
X1232160Y709426D01*
X1231500Y709499D01*
X-231500Y709499D01*
X-231577Y709487D01*
X-231654Y709495D01*
X-232053Y709409D01*
X-232456Y709343D01*
X-232524Y709307D01*
X-232600Y709290D01*
X-232952Y709081D01*
X-233312Y708890D01*
X-233366Y708834D01*
X-233432Y708794D01*
X-233698Y708484D01*
X-233980Y708188D01*
X-234012Y708117D01*
X-234063Y708058D01*
X-234216Y707680D01*
X-234388Y707309D01*
X-234397Y707232D01*
X-234426Y707160D01*
X-234499Y706500D01*
X-234499Y-1408500D01*
X-234487Y-1408577D01*
X-234495Y-1408654D01*
X-234409Y-1409053D01*
X-234343Y-1409456D01*
X-234307Y-1409524D01*
X-234290Y-1409600D01*
X-234081Y-1409952D01*
X-233890Y-1410312D01*
X-233834Y-1410366D01*
X-233794Y-1410432D01*
X-233484Y-1410698D01*
X-233188Y-1410980D01*
X-233117Y-1411012D01*
X-233058Y-1411063D01*
X-232680Y-1411216D01*
X-232309Y-1411388D01*
X-232232Y-1411397D01*
X-232160Y-1411426D01*
X-231500Y-1411499D01*
X1231500Y-1411499D01*
X1231577Y-1411487D01*
G37*
%LPC*%
G36*
X741645Y-1233001D02*
X741645Y-1233001D01*
X726209Y-1226607D01*
X714393Y-1214791D01*
X707999Y-1199355D01*
X707999Y-1182645D01*
X714393Y-1167209D01*
X726209Y-1155393D01*
X741645Y-1148999D01*
X758355Y-1148999D01*
X774208Y-1155566D01*
X774655Y-1155671D01*
X775100Y-1155783D01*
X775126Y-1155781D01*
X775151Y-1155787D01*
X775612Y-1155744D01*
X776066Y-1155709D01*
X776090Y-1155699D01*
X776116Y-1155696D01*
X776537Y-1155509D01*
X776958Y-1155331D01*
X776982Y-1155311D01*
X777001Y-1155303D01*
X777057Y-1155251D01*
X777477Y-1154916D01*
X792121Y-1140272D01*
X792121Y-1140271D01*
X797393Y-1134999D01*
X831392Y-1134999D01*
X831770Y-1134937D01*
X832152Y-1134901D01*
X832247Y-1134859D01*
X832348Y-1134843D01*
X832687Y-1134664D01*
X833037Y-1134508D01*
X833114Y-1134438D01*
X833205Y-1134390D01*
X833468Y-1134112D01*
X833751Y-1133853D01*
X833801Y-1133762D01*
X833872Y-1133688D01*
X834034Y-1133340D01*
X834219Y-1133004D01*
X834237Y-1132903D01*
X834280Y-1132809D01*
X834323Y-1132428D01*
X834391Y-1132051D01*
X834376Y-1131949D01*
X834388Y-1131846D01*
X834306Y-1131471D01*
X834251Y-1131093D01*
X834204Y-1131001D01*
X834182Y-1130900D01*
X833986Y-1130570D01*
X833813Y-1130229D01*
X833739Y-1130156D01*
X833686Y-1130068D01*
X833395Y-1129818D01*
X833122Y-1129550D01*
X833009Y-1129488D01*
X832951Y-1129437D01*
X832828Y-1129388D01*
X832540Y-1129229D01*
X826209Y-1126607D01*
X814393Y-1114791D01*
X807999Y-1099355D01*
X807999Y-1082645D01*
X813980Y-1068206D01*
X814085Y-1067759D01*
X814198Y-1067314D01*
X814196Y-1067288D01*
X814202Y-1067263D01*
X814158Y-1066802D01*
X814123Y-1066348D01*
X814113Y-1066325D01*
X814111Y-1066298D01*
X813923Y-1065877D01*
X813745Y-1065456D01*
X813726Y-1065432D01*
X813717Y-1065413D01*
X813666Y-1065357D01*
X813330Y-1064938D01*
X658499Y-910107D01*
X658499Y-899496D01*
X658487Y-899419D01*
X658495Y-899342D01*
X658409Y-898943D01*
X658343Y-898540D01*
X658307Y-898471D01*
X658290Y-898396D01*
X658081Y-898044D01*
X657890Y-897684D01*
X657834Y-897630D01*
X657794Y-897564D01*
X657484Y-897298D01*
X657188Y-897016D01*
X657117Y-896984D01*
X657058Y-896933D01*
X656680Y-896780D01*
X656309Y-896608D01*
X656232Y-896599D01*
X656160Y-896570D01*
X655500Y-896497D01*
X650149Y-896497D01*
X647220Y-893567D01*
X647220Y-865803D01*
X647636Y-865387D01*
X647909Y-865006D01*
X648186Y-864630D01*
X648192Y-864614D01*
X648201Y-864600D01*
X648339Y-864153D01*
X648482Y-863707D01*
X648482Y-863690D01*
X648487Y-863674D01*
X648475Y-863208D01*
X648468Y-862739D01*
X648462Y-862723D01*
X648462Y-862706D01*
X648302Y-862268D01*
X648146Y-861825D01*
X648135Y-861812D01*
X648130Y-861796D01*
X647835Y-861428D01*
X647550Y-861062D01*
X647533Y-861050D01*
X647525Y-861039D01*
X647476Y-861008D01*
X647015Y-860668D01*
X646080Y-860128D01*
X644218Y-858266D01*
X642901Y-855986D01*
X642220Y-853443D01*
X642220Y-846220D01*
X663094Y-846220D01*
X663170Y-846207D01*
X663247Y-846216D01*
X663647Y-846129D01*
X664050Y-846063D01*
X664118Y-846027D01*
X664194Y-846011D01*
X664545Y-845801D01*
X664906Y-845610D01*
X664959Y-845554D01*
X665026Y-845514D01*
X665291Y-845204D01*
X665573Y-844908D01*
X665606Y-844837D01*
X665656Y-844779D01*
X665809Y-844400D01*
X665982Y-844030D01*
X665990Y-843952D01*
X666016Y-843888D01*
X666063Y-844177D01*
X666100Y-844245D01*
X666116Y-844321D01*
X666326Y-844672D01*
X666516Y-845033D01*
X666573Y-845086D01*
X666612Y-845153D01*
X666922Y-845418D01*
X667219Y-845700D01*
X667289Y-845733D01*
X667348Y-845783D01*
X667727Y-845936D01*
X668097Y-846109D01*
X668174Y-846117D01*
X668246Y-846146D01*
X668906Y-846220D01*
X689780Y-846220D01*
X689780Y-853443D01*
X689099Y-855986D01*
X687782Y-858266D01*
X685920Y-860128D01*
X684985Y-860668D01*
X684618Y-860968D01*
X684258Y-861256D01*
X684249Y-861271D01*
X684235Y-861281D01*
X683986Y-861678D01*
X683734Y-862071D01*
X683729Y-862088D01*
X683720Y-862102D01*
X683610Y-862561D01*
X683496Y-863010D01*
X683498Y-863027D01*
X683494Y-863044D01*
X683535Y-863512D01*
X683571Y-863976D01*
X683577Y-863992D01*
X683579Y-864009D01*
X683765Y-864434D01*
X683949Y-864868D01*
X683962Y-864884D01*
X683967Y-864896D01*
X684005Y-864937D01*
X684364Y-865387D01*
X684780Y-865803D01*
X684780Y-893567D01*
X681851Y-896497D01*
X676500Y-896497D01*
X676423Y-896509D01*
X676346Y-896501D01*
X675946Y-896587D01*
X675544Y-896653D01*
X675475Y-896689D01*
X675399Y-896706D01*
X675048Y-896915D01*
X674688Y-897106D01*
X674634Y-897162D01*
X674568Y-897202D01*
X674302Y-897512D01*
X674020Y-897808D01*
X673987Y-897879D01*
X673937Y-897938D01*
X673784Y-898316D01*
X673612Y-898687D01*
X673603Y-898764D01*
X673574Y-898836D01*
X673501Y-899496D01*
X673501Y-902651D01*
X673559Y-903005D01*
X673586Y-903361D01*
X673636Y-903479D01*
X673657Y-903607D01*
X673824Y-903923D01*
X673964Y-904253D01*
X674067Y-904381D01*
X674110Y-904463D01*
X674203Y-904551D01*
X674379Y-904772D01*
X823938Y-1054330D01*
X824309Y-1054597D01*
X824679Y-1054872D01*
X824703Y-1054881D01*
X824724Y-1054895D01*
X825160Y-1055030D01*
X825599Y-1055173D01*
X825625Y-1055173D01*
X825650Y-1055181D01*
X826109Y-1055169D01*
X826568Y-1055165D01*
X826598Y-1055156D01*
X826618Y-1055156D01*
X826690Y-1055130D01*
X827206Y-1054980D01*
X841645Y-1048999D01*
X858355Y-1048999D01*
X870094Y-1053862D01*
X870467Y-1053949D01*
X870834Y-1054062D01*
X870937Y-1054060D01*
X871037Y-1054083D01*
X871419Y-1054047D01*
X871802Y-1054038D01*
X871899Y-1054002D01*
X872002Y-1053992D01*
X872352Y-1053837D01*
X872712Y-1053705D01*
X872793Y-1053641D01*
X872887Y-1053599D01*
X873169Y-1053340D01*
X873469Y-1053100D01*
X873525Y-1053014D01*
X873601Y-1052944D01*
X873786Y-1052608D01*
X873993Y-1052286D01*
X874018Y-1052186D01*
X874068Y-1052095D01*
X874137Y-1051718D01*
X874230Y-1051347D01*
X874222Y-1051244D01*
X874241Y-1051142D01*
X874185Y-1050763D01*
X874156Y-1050381D01*
X874116Y-1050286D01*
X874101Y-1050184D01*
X873927Y-1049842D01*
X873778Y-1049489D01*
X873697Y-1049388D01*
X873662Y-1049320D01*
X873569Y-1049227D01*
X873363Y-1048970D01*
X721768Y-897375D01*
X721477Y-897166D01*
X721205Y-896933D01*
X721085Y-896885D01*
X720981Y-896810D01*
X720639Y-896704D01*
X720307Y-896570D01*
X720145Y-896552D01*
X720055Y-896525D01*
X719927Y-896528D01*
X719647Y-896497D01*
X705149Y-896497D01*
X702220Y-893567D01*
X702220Y-865803D01*
X702636Y-865386D01*
X702907Y-865009D01*
X703186Y-864630D01*
X703191Y-864614D01*
X703201Y-864600D01*
X703338Y-864155D01*
X703482Y-863708D01*
X703481Y-863690D01*
X703486Y-863674D01*
X703475Y-863207D01*
X703468Y-862739D01*
X703462Y-862723D01*
X703462Y-862706D01*
X703301Y-862266D01*
X703146Y-861825D01*
X703135Y-861812D01*
X703129Y-861796D01*
X702835Y-861427D01*
X702550Y-861062D01*
X702533Y-861050D01*
X702524Y-861039D01*
X702476Y-861007D01*
X702015Y-860668D01*
X701080Y-860128D01*
X699218Y-858266D01*
X697901Y-855986D01*
X697220Y-853443D01*
X697220Y-846220D01*
X718094Y-846220D01*
X718170Y-846207D01*
X718247Y-846216D01*
X718647Y-846129D01*
X719050Y-846063D01*
X719118Y-846027D01*
X719194Y-846011D01*
X719545Y-845801D01*
X719906Y-845610D01*
X719959Y-845554D01*
X720026Y-845514D01*
X720291Y-845204D01*
X720573Y-844908D01*
X720606Y-844837D01*
X720656Y-844779D01*
X720809Y-844400D01*
X720982Y-844030D01*
X720990Y-843952D01*
X721016Y-843888D01*
X721063Y-844177D01*
X721100Y-844245D01*
X721116Y-844321D01*
X721326Y-844672D01*
X721516Y-845033D01*
X721573Y-845086D01*
X721612Y-845153D01*
X721922Y-845418D01*
X722219Y-845700D01*
X722289Y-845733D01*
X722348Y-845783D01*
X722727Y-845936D01*
X723097Y-846109D01*
X723174Y-846117D01*
X723246Y-846146D01*
X723906Y-846220D01*
X744780Y-846220D01*
X744780Y-853443D01*
X744099Y-855986D01*
X742782Y-858266D01*
X740920Y-860128D01*
X739985Y-860668D01*
X739626Y-860962D01*
X739258Y-861256D01*
X739249Y-861271D01*
X739235Y-861282D01*
X738988Y-861676D01*
X738734Y-862071D01*
X738730Y-862087D01*
X738720Y-862102D01*
X738610Y-862561D01*
X738496Y-863010D01*
X738498Y-863027D01*
X738494Y-863044D01*
X738535Y-863515D01*
X738571Y-863976D01*
X738577Y-863991D01*
X738579Y-864009D01*
X738767Y-864439D01*
X738949Y-864868D01*
X738962Y-864884D01*
X738968Y-864896D01*
X739005Y-864938D01*
X739364Y-865386D01*
X739780Y-865803D01*
X739780Y-892930D01*
X739838Y-893284D01*
X739866Y-893641D01*
X739916Y-893759D01*
X739937Y-893886D01*
X740104Y-894202D01*
X740244Y-894532D01*
X740346Y-894660D01*
X740390Y-894742D01*
X740482Y-894830D01*
X740659Y-895051D01*
X908001Y-1062393D01*
X908001Y-1123539D01*
X881539Y-1150001D01*
X875639Y-1150001D01*
X875361Y-1150046D01*
X875079Y-1150053D01*
X874886Y-1150124D01*
X874683Y-1150157D01*
X874434Y-1150289D01*
X874169Y-1150386D01*
X874008Y-1150514D01*
X873827Y-1150610D01*
X873633Y-1150814D01*
X873413Y-1150991D01*
X873301Y-1151163D01*
X873160Y-1151312D01*
X873041Y-1151568D01*
X872888Y-1151805D01*
X872838Y-1152004D01*
X872751Y-1152191D01*
X872720Y-1152471D01*
X872651Y-1152744D01*
X872667Y-1152949D01*
X872644Y-1153154D01*
X872704Y-1153430D01*
X872726Y-1153710D01*
X872806Y-1153899D01*
X872849Y-1154100D01*
X872994Y-1154342D01*
X873104Y-1154602D01*
X873280Y-1154822D01*
X873346Y-1154932D01*
X873416Y-1154993D01*
X873519Y-1155121D01*
X885607Y-1167209D01*
X892001Y-1182645D01*
X892001Y-1199355D01*
X885607Y-1214791D01*
X873791Y-1226607D01*
X858355Y-1233001D01*
X841645Y-1233001D01*
X826209Y-1226607D01*
X814393Y-1214791D01*
X807999Y-1199355D01*
X807999Y-1182645D01*
X814393Y-1167209D01*
X826481Y-1155121D01*
X826646Y-1154892D01*
X826840Y-1154687D01*
X826927Y-1154501D01*
X827047Y-1154334D01*
X827130Y-1154065D01*
X827249Y-1153809D01*
X827271Y-1153605D01*
X827332Y-1153408D01*
X827325Y-1153126D01*
X827356Y-1152846D01*
X827312Y-1152645D01*
X827307Y-1152440D01*
X827210Y-1152175D01*
X827151Y-1151899D01*
X827045Y-1151723D01*
X826975Y-1151530D01*
X826799Y-1151309D01*
X826654Y-1151068D01*
X826498Y-1150934D01*
X826370Y-1150773D01*
X826133Y-1150621D01*
X825919Y-1150437D01*
X825728Y-1150360D01*
X825555Y-1150249D01*
X825282Y-1150180D01*
X825021Y-1150074D01*
X824740Y-1150043D01*
X824616Y-1150012D01*
X824523Y-1150019D01*
X824360Y-1150001D01*
X804849Y-1150001D01*
X804495Y-1150059D01*
X804139Y-1150086D01*
X804020Y-1150136D01*
X803893Y-1150157D01*
X803577Y-1150324D01*
X803247Y-1150464D01*
X803119Y-1150567D01*
X803037Y-1150610D01*
X802949Y-1150703D01*
X802728Y-1150879D01*
X787256Y-1166352D01*
X786989Y-1166723D01*
X786713Y-1167093D01*
X786705Y-1167118D01*
X786690Y-1167138D01*
X786556Y-1167574D01*
X786412Y-1168014D01*
X786413Y-1168039D01*
X786405Y-1168064D01*
X786417Y-1168523D01*
X786418Y-1168700D01*
X786417Y-1168713D01*
X786419Y-1168720D01*
X786421Y-1168982D01*
X786429Y-1169012D01*
X786430Y-1169033D01*
X786456Y-1169104D01*
X786605Y-1169620D01*
X792001Y-1182645D01*
X792001Y-1199355D01*
X785607Y-1214791D01*
X773791Y-1226607D01*
X758355Y-1233001D01*
X741645Y-1233001D01*
G37*
%LPD*%
%LPC*%
G36*
X-165514Y-1327993D02*
X-165514Y-1327993D01*
X-194179Y-1316119D01*
X-216119Y-1294179D01*
X-227993Y-1265514D01*
X-227993Y-1234486D01*
X-216119Y-1205821D01*
X-194179Y-1183881D01*
X-165514Y-1172007D01*
X-134486Y-1172007D01*
X-105821Y-1183881D01*
X-83881Y-1205821D01*
X-72007Y-1234486D01*
X-72007Y-1265514D01*
X-83881Y-1294179D01*
X-105821Y-1316119D01*
X-134486Y-1327993D01*
X-165514Y-1327993D01*
G37*
%LPD*%
%LPC*%
G36*
X1134486Y-1327993D02*
X1134486Y-1327993D01*
X1105821Y-1316119D01*
X1083881Y-1294179D01*
X1072007Y-1265514D01*
X1072007Y-1234486D01*
X1083881Y-1205821D01*
X1105821Y-1183881D01*
X1134486Y-1172007D01*
X1165514Y-1172007D01*
X1194179Y-1183881D01*
X1216119Y-1205821D01*
X1227993Y-1234486D01*
X1227993Y-1265514D01*
X1216119Y-1294179D01*
X1194179Y-1316119D01*
X1165514Y-1327993D01*
X1134486Y-1327993D01*
G37*
%LPD*%
%LPC*%
G36*
X-165514Y-77993D02*
X-165514Y-77993D01*
X-194179Y-66119D01*
X-216119Y-44179D01*
X-227993Y-15514D01*
X-227993Y15514D01*
X-216119Y44179D01*
X-194179Y66119D01*
X-165514Y77993D01*
X-134486Y77993D01*
X-105821Y66119D01*
X-83881Y44179D01*
X-72007Y15514D01*
X-72007Y-15514D01*
X-83881Y-44179D01*
X-105821Y-66119D01*
X-134486Y-77993D01*
X-165514Y-77993D01*
G37*
%LPD*%
%LPC*%
G36*
X1134486Y-77993D02*
X1134486Y-77993D01*
X1105821Y-66119D01*
X1083881Y-44179D01*
X1072007Y-15514D01*
X1072007Y15514D01*
X1083881Y44179D01*
X1105821Y66119D01*
X1134486Y77993D01*
X1165514Y77993D01*
X1194179Y66119D01*
X1216119Y44179D01*
X1227993Y15514D01*
X1227993Y-15514D01*
X1216119Y-44179D01*
X1194179Y-66119D01*
X1165514Y-77993D01*
X1134486Y-77993D01*
G37*
%LPD*%
%LPC*%
G36*
X401201Y289999D02*
X401201Y289999D01*
X392999Y298201D01*
X392999Y309799D01*
X398621Y315421D01*
X398830Y315712D01*
X399063Y315983D01*
X399111Y316103D01*
X399186Y316207D01*
X399291Y316549D01*
X399426Y316882D01*
X399444Y317044D01*
X399471Y317133D01*
X399468Y317261D01*
X399499Y317542D01*
X399499Y340607D01*
X404772Y345879D01*
X418621Y359728D01*
X418830Y360019D01*
X419063Y360291D01*
X419111Y360410D01*
X419186Y360515D01*
X419291Y360857D01*
X419426Y361189D01*
X419444Y361351D01*
X419471Y361441D01*
X419468Y361569D01*
X419499Y361849D01*
X419499Y365071D01*
X422429Y368001D01*
X577571Y368001D01*
X580501Y365071D01*
X580501Y352929D01*
X577571Y349999D01*
X558742Y349999D01*
X558464Y349954D01*
X558182Y349946D01*
X557989Y349876D01*
X557786Y349843D01*
X557537Y349711D01*
X557272Y349614D01*
X557111Y349486D01*
X556930Y349390D01*
X556736Y349186D01*
X556516Y349009D01*
X556404Y348836D01*
X556263Y348688D01*
X556144Y348432D01*
X555991Y348195D01*
X555941Y347996D01*
X555854Y347809D01*
X555823Y347529D01*
X555754Y347256D01*
X555770Y347051D01*
X555747Y346846D01*
X555807Y346570D01*
X555828Y346290D01*
X555909Y346101D01*
X555952Y345900D01*
X556097Y345658D01*
X556207Y345398D01*
X556383Y345177D01*
X556449Y345068D01*
X556519Y345007D01*
X556622Y344879D01*
X562622Y338879D01*
X562913Y338670D01*
X563184Y338437D01*
X563304Y338389D01*
X563408Y338314D01*
X563750Y338208D01*
X564083Y338074D01*
X564245Y338056D01*
X564334Y338029D01*
X564462Y338032D01*
X564743Y338001D01*
X566799Y338001D01*
X575001Y329799D01*
X575001Y318201D01*
X566799Y309999D01*
X561000Y309999D01*
X560923Y309987D01*
X560846Y309995D01*
X560446Y309909D01*
X560044Y309843D01*
X559975Y309807D01*
X559899Y309790D01*
X559548Y309581D01*
X559188Y309390D01*
X559134Y309334D01*
X559068Y309294D01*
X558802Y308984D01*
X558520Y308688D01*
X558487Y308617D01*
X558437Y308558D01*
X558284Y308180D01*
X558112Y307809D01*
X558103Y307732D01*
X558074Y307660D01*
X558001Y307000D01*
X558001Y300201D01*
X549799Y291999D01*
X538201Y291999D01*
X530121Y300079D01*
X530057Y300125D01*
X530009Y300185D01*
X529837Y300296D01*
X529687Y300438D01*
X529501Y300525D01*
X529334Y300645D01*
X529259Y300668D01*
X529195Y300709D01*
X528997Y300759D01*
X528809Y300847D01*
X528605Y300869D01*
X528408Y300930D01*
X528330Y300928D01*
X528255Y300947D01*
X528052Y300931D01*
X527846Y300954D01*
X527645Y300910D01*
X527440Y300905D01*
X527366Y300878D01*
X527290Y300872D01*
X527102Y300792D01*
X526899Y300749D01*
X526723Y300643D01*
X526530Y300573D01*
X526469Y300524D01*
X526398Y300494D01*
X526179Y300319D01*
X526068Y300252D01*
X526006Y300181D01*
X525879Y300079D01*
X516799Y290999D01*
X505201Y290999D01*
X497121Y299079D01*
X497057Y299125D01*
X497009Y299185D01*
X496837Y299296D01*
X496687Y299438D01*
X496501Y299525D01*
X496334Y299645D01*
X496259Y299668D01*
X496195Y299709D01*
X495997Y299759D01*
X495809Y299847D01*
X495605Y299869D01*
X495408Y299930D01*
X495330Y299928D01*
X495255Y299947D01*
X495052Y299931D01*
X494846Y299954D01*
X494645Y299910D01*
X494440Y299905D01*
X494366Y299878D01*
X494290Y299872D01*
X494102Y299792D01*
X493899Y299749D01*
X493723Y299643D01*
X493530Y299573D01*
X493469Y299524D01*
X493398Y299494D01*
X493179Y299319D01*
X493068Y299252D01*
X493006Y299181D01*
X492879Y299079D01*
X483799Y289999D01*
X472201Y289999D01*
X463999Y298201D01*
X463999Y306000D01*
X463987Y306077D01*
X463995Y306154D01*
X463909Y306553D01*
X463843Y306956D01*
X463807Y307024D01*
X463790Y307100D01*
X463581Y307452D01*
X463390Y307812D01*
X463334Y307866D01*
X463294Y307932D01*
X462984Y308198D01*
X462688Y308480D01*
X462617Y308512D01*
X462558Y308563D01*
X462180Y308716D01*
X461809Y308888D01*
X461732Y308897D01*
X461660Y308926D01*
X461000Y308999D01*
X460000Y308999D01*
X459923Y308987D01*
X459846Y308995D01*
X459446Y308909D01*
X459044Y308843D01*
X458975Y308807D01*
X458899Y308790D01*
X458548Y308581D01*
X458188Y308390D01*
X458134Y308334D01*
X458068Y308294D01*
X457802Y307984D01*
X457520Y307688D01*
X457487Y307617D01*
X457437Y307558D01*
X457284Y307180D01*
X457112Y306809D01*
X457103Y306732D01*
X457074Y306660D01*
X457001Y306000D01*
X457001Y298201D01*
X448799Y289999D01*
X437201Y289999D01*
X428999Y298201D01*
X428999Y306000D01*
X428987Y306077D01*
X428995Y306154D01*
X428909Y306553D01*
X428843Y306956D01*
X428807Y307024D01*
X428790Y307100D01*
X428581Y307452D01*
X428390Y307812D01*
X428334Y307866D01*
X428294Y307932D01*
X427984Y308198D01*
X427688Y308480D01*
X427617Y308512D01*
X427558Y308563D01*
X427180Y308716D01*
X426809Y308888D01*
X426732Y308897D01*
X426660Y308926D01*
X426000Y308999D01*
X424000Y308999D01*
X423923Y308987D01*
X423846Y308995D01*
X423446Y308909D01*
X423044Y308843D01*
X422975Y308807D01*
X422899Y308790D01*
X422548Y308581D01*
X422188Y308390D01*
X422134Y308334D01*
X422068Y308294D01*
X421802Y307984D01*
X421520Y307688D01*
X421487Y307617D01*
X421437Y307558D01*
X421284Y307180D01*
X421112Y306809D01*
X421103Y306732D01*
X421074Y306660D01*
X421001Y306000D01*
X421001Y298201D01*
X412799Y289999D01*
X401201Y289999D01*
G37*
%LPD*%
%LPC*%
G36*
X741645Y-1133001D02*
X741645Y-1133001D01*
X726209Y-1126607D01*
X714393Y-1114791D01*
X707999Y-1099355D01*
X707999Y-1082645D01*
X713980Y-1068206D01*
X714085Y-1067759D01*
X714198Y-1067314D01*
X714196Y-1067288D01*
X714202Y-1067263D01*
X714158Y-1066802D01*
X714123Y-1066348D01*
X714113Y-1066325D01*
X714111Y-1066298D01*
X713923Y-1065877D01*
X713745Y-1065456D01*
X713726Y-1065432D01*
X713717Y-1065413D01*
X713666Y-1065357D01*
X713330Y-1064938D01*
X603499Y-955107D01*
X603499Y-899496D01*
X603487Y-899419D01*
X603495Y-899342D01*
X603409Y-898943D01*
X603343Y-898540D01*
X603307Y-898471D01*
X603290Y-898396D01*
X603081Y-898044D01*
X602890Y-897684D01*
X602834Y-897630D01*
X602794Y-897564D01*
X602484Y-897298D01*
X602188Y-897016D01*
X602117Y-896984D01*
X602058Y-896933D01*
X601680Y-896780D01*
X601309Y-896608D01*
X601232Y-896599D01*
X601160Y-896570D01*
X600500Y-896497D01*
X595149Y-896497D01*
X592220Y-893567D01*
X592220Y-865803D01*
X592636Y-865387D01*
X592909Y-865006D01*
X593186Y-864630D01*
X593192Y-864614D01*
X593201Y-864600D01*
X593339Y-864153D01*
X593482Y-863707D01*
X593482Y-863690D01*
X593487Y-863674D01*
X593475Y-863208D01*
X593468Y-862739D01*
X593462Y-862723D01*
X593462Y-862706D01*
X593302Y-862268D01*
X593146Y-861825D01*
X593135Y-861812D01*
X593130Y-861796D01*
X592835Y-861428D01*
X592550Y-861062D01*
X592533Y-861050D01*
X592525Y-861039D01*
X592476Y-861008D01*
X592015Y-860668D01*
X591080Y-860128D01*
X589218Y-858266D01*
X587901Y-855986D01*
X587220Y-853443D01*
X587220Y-846220D01*
X608094Y-846220D01*
X608170Y-846207D01*
X608247Y-846216D01*
X608647Y-846129D01*
X609050Y-846063D01*
X609118Y-846027D01*
X609194Y-846011D01*
X609545Y-845801D01*
X609906Y-845610D01*
X609959Y-845554D01*
X610026Y-845514D01*
X610291Y-845204D01*
X610573Y-844908D01*
X610606Y-844837D01*
X610656Y-844779D01*
X610809Y-844400D01*
X610982Y-844030D01*
X610990Y-843952D01*
X611016Y-843888D01*
X611063Y-844177D01*
X611100Y-844245D01*
X611116Y-844321D01*
X611326Y-844672D01*
X611516Y-845033D01*
X611573Y-845086D01*
X611612Y-845153D01*
X611922Y-845418D01*
X612219Y-845700D01*
X612289Y-845733D01*
X612348Y-845783D01*
X612727Y-845936D01*
X613097Y-846109D01*
X613174Y-846117D01*
X613246Y-846146D01*
X613906Y-846220D01*
X634780Y-846220D01*
X634780Y-853443D01*
X634099Y-855986D01*
X632782Y-858266D01*
X630920Y-860128D01*
X629985Y-860668D01*
X629618Y-860968D01*
X629258Y-861256D01*
X629249Y-861271D01*
X629235Y-861281D01*
X628986Y-861678D01*
X628734Y-862071D01*
X628729Y-862088D01*
X628720Y-862102D01*
X628610Y-862561D01*
X628496Y-863010D01*
X628498Y-863027D01*
X628494Y-863044D01*
X628535Y-863512D01*
X628571Y-863976D01*
X628577Y-863992D01*
X628579Y-864009D01*
X628765Y-864434D01*
X628949Y-864868D01*
X628962Y-864884D01*
X628967Y-864896D01*
X629005Y-864937D01*
X629364Y-865387D01*
X629780Y-865803D01*
X629780Y-893567D01*
X626851Y-896497D01*
X621500Y-896497D01*
X621423Y-896509D01*
X621346Y-896501D01*
X620946Y-896587D01*
X620544Y-896653D01*
X620475Y-896689D01*
X620399Y-896706D01*
X620048Y-896915D01*
X619688Y-897106D01*
X619634Y-897162D01*
X619568Y-897202D01*
X619302Y-897512D01*
X619020Y-897808D01*
X618987Y-897879D01*
X618937Y-897938D01*
X618784Y-898316D01*
X618612Y-898687D01*
X618603Y-898764D01*
X618574Y-898836D01*
X618501Y-899496D01*
X618501Y-947651D01*
X618559Y-948005D01*
X618586Y-948361D01*
X618636Y-948479D01*
X618657Y-948607D01*
X618824Y-948923D01*
X618964Y-949253D01*
X619067Y-949381D01*
X619110Y-949463D01*
X619203Y-949551D01*
X619379Y-949772D01*
X723938Y-1054330D01*
X724309Y-1054597D01*
X724679Y-1054872D01*
X724703Y-1054881D01*
X724724Y-1054895D01*
X725160Y-1055030D01*
X725599Y-1055173D01*
X725625Y-1055173D01*
X725650Y-1055181D01*
X726109Y-1055169D01*
X726568Y-1055165D01*
X726598Y-1055156D01*
X726618Y-1055156D01*
X726690Y-1055130D01*
X727206Y-1054980D01*
X741645Y-1048999D01*
X758355Y-1048999D01*
X773791Y-1055393D01*
X785607Y-1067209D01*
X792001Y-1082645D01*
X792001Y-1099355D01*
X785607Y-1114791D01*
X773791Y-1126607D01*
X758355Y-1133001D01*
X741645Y-1133001D01*
G37*
%LPD*%
%LPC*%
G36*
X141645Y-1133001D02*
X141645Y-1133001D01*
X126209Y-1126607D01*
X114393Y-1114791D01*
X107999Y-1099355D01*
X107999Y-1082645D01*
X114393Y-1067209D01*
X126209Y-1055393D01*
X141645Y-1048999D01*
X158355Y-1048999D01*
X172794Y-1054980D01*
X173241Y-1055085D01*
X173686Y-1055198D01*
X173712Y-1055196D01*
X173737Y-1055202D01*
X174197Y-1055158D01*
X174652Y-1055123D01*
X174675Y-1055113D01*
X174701Y-1055111D01*
X175123Y-1054923D01*
X175544Y-1054745D01*
X175568Y-1054726D01*
X175587Y-1054717D01*
X175643Y-1054666D01*
X176062Y-1054330D01*
X272621Y-957772D01*
X272830Y-957481D01*
X273063Y-957209D01*
X273111Y-957089D01*
X273186Y-956985D01*
X273291Y-956643D01*
X273337Y-956531D01*
X273388Y-956421D01*
X273391Y-956398D01*
X273426Y-956311D01*
X273444Y-956148D01*
X273471Y-956059D01*
X273468Y-955931D01*
X273499Y-955651D01*
X273499Y-899496D01*
X273487Y-899419D01*
X273495Y-899342D01*
X273409Y-898943D01*
X273343Y-898540D01*
X273307Y-898471D01*
X273290Y-898396D01*
X273081Y-898044D01*
X272890Y-897684D01*
X272834Y-897630D01*
X272794Y-897564D01*
X272484Y-897298D01*
X272188Y-897016D01*
X272117Y-896984D01*
X272058Y-896933D01*
X271680Y-896780D01*
X271309Y-896608D01*
X271232Y-896599D01*
X271160Y-896570D01*
X270500Y-896497D01*
X265149Y-896497D01*
X262220Y-893567D01*
X262220Y-865803D01*
X262636Y-865387D01*
X262909Y-865006D01*
X263186Y-864630D01*
X263192Y-864614D01*
X263201Y-864600D01*
X263339Y-864153D01*
X263482Y-863707D01*
X263482Y-863690D01*
X263487Y-863674D01*
X263475Y-863208D01*
X263468Y-862739D01*
X263462Y-862723D01*
X263462Y-862706D01*
X263302Y-862268D01*
X263146Y-861825D01*
X263135Y-861812D01*
X263130Y-861796D01*
X262835Y-861428D01*
X262550Y-861062D01*
X262533Y-861050D01*
X262525Y-861039D01*
X262476Y-861008D01*
X262015Y-860668D01*
X261080Y-860128D01*
X259218Y-858266D01*
X257901Y-855986D01*
X257220Y-853443D01*
X257220Y-846220D01*
X278094Y-846220D01*
X278170Y-846207D01*
X278247Y-846216D01*
X278647Y-846129D01*
X279050Y-846063D01*
X279118Y-846027D01*
X279194Y-846011D01*
X279545Y-845801D01*
X279906Y-845610D01*
X279959Y-845554D01*
X280026Y-845514D01*
X280291Y-845204D01*
X280573Y-844908D01*
X280606Y-844837D01*
X280656Y-844779D01*
X280809Y-844400D01*
X280982Y-844030D01*
X280990Y-843952D01*
X281016Y-843888D01*
X281063Y-844177D01*
X281100Y-844245D01*
X281116Y-844321D01*
X281326Y-844672D01*
X281516Y-845033D01*
X281573Y-845086D01*
X281612Y-845153D01*
X281922Y-845418D01*
X282219Y-845700D01*
X282289Y-845733D01*
X282348Y-845783D01*
X282727Y-845936D01*
X283097Y-846109D01*
X283174Y-846117D01*
X283246Y-846146D01*
X283906Y-846220D01*
X304780Y-846220D01*
X304780Y-853443D01*
X304099Y-855986D01*
X302782Y-858266D01*
X300920Y-860128D01*
X299985Y-860668D01*
X299618Y-860968D01*
X299258Y-861256D01*
X299249Y-861271D01*
X299235Y-861281D01*
X298986Y-861678D01*
X298734Y-862071D01*
X298729Y-862088D01*
X298720Y-862102D01*
X298610Y-862561D01*
X298496Y-863010D01*
X298498Y-863027D01*
X298494Y-863044D01*
X298535Y-863512D01*
X298571Y-863976D01*
X298577Y-863992D01*
X298579Y-864009D01*
X298765Y-864434D01*
X298949Y-864868D01*
X298962Y-864884D01*
X298967Y-864896D01*
X299005Y-864937D01*
X299364Y-865387D01*
X299780Y-865803D01*
X299780Y-893567D01*
X296851Y-896497D01*
X291500Y-896497D01*
X291423Y-896509D01*
X291346Y-896501D01*
X290946Y-896587D01*
X290544Y-896653D01*
X290475Y-896689D01*
X290399Y-896706D01*
X290048Y-896915D01*
X289688Y-897106D01*
X289634Y-897162D01*
X289568Y-897202D01*
X289302Y-897512D01*
X289020Y-897808D01*
X288987Y-897879D01*
X288937Y-897938D01*
X288784Y-898316D01*
X288612Y-898687D01*
X288603Y-898764D01*
X288574Y-898836D01*
X288501Y-899496D01*
X288501Y-963107D01*
X186670Y-1064938D01*
X186403Y-1065309D01*
X186127Y-1065679D01*
X186119Y-1065703D01*
X186104Y-1065724D01*
X185970Y-1066160D01*
X185827Y-1066599D01*
X185827Y-1066625D01*
X185819Y-1066650D01*
X185831Y-1067109D01*
X185835Y-1067568D01*
X185844Y-1067598D01*
X185844Y-1067618D01*
X185870Y-1067690D01*
X186020Y-1068206D01*
X192001Y-1082645D01*
X192001Y-1099355D01*
X185607Y-1114791D01*
X173791Y-1126607D01*
X158355Y-1133001D01*
X141645Y-1133001D01*
G37*
%LPD*%
%LPC*%
G36*
X641645Y-1133001D02*
X641645Y-1133001D01*
X626209Y-1126607D01*
X614393Y-1114791D01*
X607999Y-1099355D01*
X607999Y-1082645D01*
X613980Y-1068206D01*
X614085Y-1067759D01*
X614198Y-1067314D01*
X614196Y-1067288D01*
X614202Y-1067263D01*
X614158Y-1066802D01*
X614123Y-1066348D01*
X614113Y-1066325D01*
X614111Y-1066298D01*
X613923Y-1065877D01*
X613745Y-1065456D01*
X613726Y-1065432D01*
X613717Y-1065413D01*
X613666Y-1065357D01*
X613330Y-1064938D01*
X548499Y-1000107D01*
X548499Y-899496D01*
X548487Y-899419D01*
X548495Y-899342D01*
X548409Y-898943D01*
X548343Y-898540D01*
X548307Y-898471D01*
X548290Y-898396D01*
X548081Y-898044D01*
X547890Y-897684D01*
X547834Y-897630D01*
X547794Y-897564D01*
X547484Y-897298D01*
X547188Y-897016D01*
X547117Y-896984D01*
X547058Y-896933D01*
X546680Y-896780D01*
X546309Y-896608D01*
X546232Y-896599D01*
X546160Y-896570D01*
X545500Y-896497D01*
X540149Y-896497D01*
X537220Y-893567D01*
X537220Y-865803D01*
X537636Y-865386D01*
X537907Y-865009D01*
X538186Y-864630D01*
X538191Y-864614D01*
X538201Y-864600D01*
X538338Y-864155D01*
X538482Y-863708D01*
X538481Y-863690D01*
X538486Y-863674D01*
X538475Y-863207D01*
X538468Y-862739D01*
X538462Y-862723D01*
X538462Y-862706D01*
X538301Y-862266D01*
X538146Y-861825D01*
X538135Y-861812D01*
X538129Y-861796D01*
X537835Y-861427D01*
X537550Y-861062D01*
X537533Y-861050D01*
X537524Y-861039D01*
X537476Y-861007D01*
X537015Y-860668D01*
X536080Y-860128D01*
X534218Y-858266D01*
X532901Y-855986D01*
X532220Y-853443D01*
X532220Y-846220D01*
X553094Y-846220D01*
X553170Y-846207D01*
X553247Y-846216D01*
X553647Y-846129D01*
X554050Y-846063D01*
X554118Y-846027D01*
X554194Y-846011D01*
X554545Y-845801D01*
X554906Y-845610D01*
X554959Y-845554D01*
X555026Y-845514D01*
X555291Y-845204D01*
X555573Y-844908D01*
X555606Y-844837D01*
X555656Y-844779D01*
X555809Y-844400D01*
X555982Y-844030D01*
X555990Y-843952D01*
X556016Y-843888D01*
X556063Y-844177D01*
X556100Y-844245D01*
X556116Y-844321D01*
X556326Y-844672D01*
X556516Y-845033D01*
X556573Y-845086D01*
X556612Y-845153D01*
X556922Y-845418D01*
X557219Y-845700D01*
X557289Y-845733D01*
X557348Y-845783D01*
X557727Y-845936D01*
X558097Y-846109D01*
X558174Y-846117D01*
X558246Y-846146D01*
X558906Y-846220D01*
X579780Y-846220D01*
X579780Y-853443D01*
X579099Y-855986D01*
X577782Y-858266D01*
X575920Y-860128D01*
X574985Y-860668D01*
X574626Y-860962D01*
X574258Y-861256D01*
X574249Y-861271D01*
X574235Y-861282D01*
X573988Y-861676D01*
X573734Y-862071D01*
X573730Y-862087D01*
X573720Y-862102D01*
X573610Y-862561D01*
X573496Y-863010D01*
X573498Y-863027D01*
X573494Y-863044D01*
X573535Y-863515D01*
X573571Y-863976D01*
X573577Y-863991D01*
X573579Y-864009D01*
X573767Y-864439D01*
X573949Y-864868D01*
X573962Y-864884D01*
X573968Y-864896D01*
X574005Y-864938D01*
X574364Y-865386D01*
X574780Y-865803D01*
X574780Y-893567D01*
X571851Y-896497D01*
X566500Y-896497D01*
X566423Y-896509D01*
X566346Y-896501D01*
X565946Y-896587D01*
X565544Y-896653D01*
X565475Y-896689D01*
X565399Y-896706D01*
X565048Y-896915D01*
X564688Y-897106D01*
X564634Y-897162D01*
X564568Y-897202D01*
X564302Y-897512D01*
X564020Y-897808D01*
X563987Y-897879D01*
X563937Y-897938D01*
X563784Y-898316D01*
X563612Y-898687D01*
X563603Y-898764D01*
X563574Y-898836D01*
X563501Y-899496D01*
X563501Y-992651D01*
X563559Y-993005D01*
X563586Y-993361D01*
X563636Y-993479D01*
X563657Y-993607D01*
X563824Y-993923D01*
X563964Y-994253D01*
X564067Y-994381D01*
X564110Y-994463D01*
X564203Y-994551D01*
X564379Y-994772D01*
X623938Y-1054330D01*
X624309Y-1054597D01*
X624679Y-1054872D01*
X624703Y-1054881D01*
X624724Y-1054895D01*
X625160Y-1055030D01*
X625599Y-1055173D01*
X625625Y-1055173D01*
X625650Y-1055181D01*
X626109Y-1055169D01*
X626568Y-1055165D01*
X626598Y-1055156D01*
X626618Y-1055156D01*
X626690Y-1055130D01*
X627206Y-1054980D01*
X641645Y-1048999D01*
X658355Y-1048999D01*
X673791Y-1055393D01*
X685607Y-1067209D01*
X692001Y-1082645D01*
X692001Y-1099355D01*
X685607Y-1114791D01*
X673791Y-1126607D01*
X658355Y-1133001D01*
X641645Y-1133001D01*
G37*
%LPD*%
%LPC*%
G36*
X241645Y-1133001D02*
X241645Y-1133001D01*
X226209Y-1126607D01*
X214393Y-1114791D01*
X207999Y-1099355D01*
X207999Y-1082645D01*
X214393Y-1067209D01*
X226209Y-1055393D01*
X241645Y-1048999D01*
X258355Y-1048999D01*
X272794Y-1054980D01*
X273241Y-1055085D01*
X273686Y-1055198D01*
X273712Y-1055196D01*
X273737Y-1055202D01*
X274197Y-1055158D01*
X274652Y-1055123D01*
X274675Y-1055113D01*
X274701Y-1055111D01*
X275122Y-1054924D01*
X275544Y-1054745D01*
X275568Y-1054726D01*
X275587Y-1054717D01*
X275643Y-1054666D01*
X276062Y-1054330D01*
X327621Y-1002772D01*
X327830Y-1002481D01*
X328063Y-1002209D01*
X328111Y-1002089D01*
X328186Y-1001985D01*
X328291Y-1001643D01*
X328371Y-1001446D01*
X328388Y-1001409D01*
X328389Y-1001402D01*
X328426Y-1001311D01*
X328444Y-1001148D01*
X328471Y-1001059D01*
X328468Y-1000931D01*
X328499Y-1000651D01*
X328499Y-899496D01*
X328487Y-899419D01*
X328495Y-899342D01*
X328409Y-898943D01*
X328343Y-898540D01*
X328307Y-898471D01*
X328290Y-898396D01*
X328081Y-898044D01*
X327890Y-897684D01*
X327834Y-897630D01*
X327794Y-897564D01*
X327484Y-897298D01*
X327188Y-897016D01*
X327117Y-896984D01*
X327058Y-896933D01*
X326680Y-896780D01*
X326309Y-896608D01*
X326232Y-896599D01*
X326160Y-896570D01*
X325500Y-896497D01*
X320149Y-896497D01*
X317220Y-893567D01*
X317220Y-865803D01*
X317636Y-865387D01*
X317909Y-865006D01*
X318186Y-864630D01*
X318192Y-864614D01*
X318201Y-864600D01*
X318339Y-864153D01*
X318482Y-863707D01*
X318482Y-863690D01*
X318487Y-863674D01*
X318475Y-863208D01*
X318468Y-862739D01*
X318462Y-862723D01*
X318462Y-862706D01*
X318302Y-862268D01*
X318146Y-861825D01*
X318135Y-861812D01*
X318130Y-861796D01*
X317835Y-861428D01*
X317550Y-861062D01*
X317533Y-861050D01*
X317525Y-861039D01*
X317476Y-861008D01*
X317015Y-860668D01*
X316080Y-860128D01*
X314218Y-858266D01*
X312901Y-855986D01*
X312220Y-853443D01*
X312220Y-846220D01*
X333094Y-846220D01*
X333170Y-846207D01*
X333247Y-846216D01*
X333647Y-846129D01*
X334050Y-846063D01*
X334118Y-846027D01*
X334194Y-846011D01*
X334545Y-845801D01*
X334906Y-845610D01*
X334959Y-845554D01*
X335026Y-845514D01*
X335291Y-845204D01*
X335573Y-844908D01*
X335606Y-844837D01*
X335656Y-844779D01*
X335809Y-844400D01*
X335982Y-844030D01*
X335990Y-843952D01*
X336016Y-843888D01*
X336063Y-844177D01*
X336100Y-844245D01*
X336116Y-844321D01*
X336326Y-844672D01*
X336516Y-845033D01*
X336573Y-845086D01*
X336612Y-845153D01*
X336922Y-845418D01*
X337219Y-845700D01*
X337289Y-845733D01*
X337348Y-845783D01*
X337727Y-845936D01*
X338097Y-846109D01*
X338174Y-846117D01*
X338246Y-846146D01*
X338906Y-846220D01*
X359780Y-846220D01*
X359780Y-853443D01*
X359099Y-855986D01*
X357782Y-858266D01*
X355920Y-860128D01*
X354985Y-860668D01*
X354618Y-860968D01*
X354258Y-861256D01*
X354249Y-861271D01*
X354235Y-861281D01*
X353986Y-861678D01*
X353734Y-862071D01*
X353729Y-862088D01*
X353720Y-862102D01*
X353610Y-862561D01*
X353496Y-863010D01*
X353498Y-863027D01*
X353494Y-863044D01*
X353535Y-863512D01*
X353571Y-863976D01*
X353577Y-863992D01*
X353579Y-864009D01*
X353765Y-864434D01*
X353949Y-864868D01*
X353962Y-864884D01*
X353967Y-864896D01*
X354005Y-864937D01*
X354364Y-865387D01*
X354780Y-865803D01*
X354780Y-893567D01*
X351851Y-896497D01*
X346500Y-896497D01*
X346423Y-896509D01*
X346346Y-896501D01*
X345946Y-896587D01*
X345544Y-896653D01*
X345475Y-896689D01*
X345399Y-896706D01*
X345048Y-896915D01*
X344688Y-897106D01*
X344634Y-897162D01*
X344568Y-897202D01*
X344302Y-897512D01*
X344020Y-897808D01*
X343987Y-897879D01*
X343937Y-897938D01*
X343784Y-898316D01*
X343612Y-898687D01*
X343603Y-898764D01*
X343574Y-898836D01*
X343501Y-899496D01*
X343501Y-1008107D01*
X286670Y-1064938D01*
X286403Y-1065309D01*
X286127Y-1065679D01*
X286119Y-1065703D01*
X286104Y-1065724D01*
X285970Y-1066160D01*
X285827Y-1066599D01*
X285827Y-1066625D01*
X285819Y-1066650D01*
X285831Y-1067109D01*
X285835Y-1067568D01*
X285844Y-1067598D01*
X285844Y-1067618D01*
X285870Y-1067690D01*
X286020Y-1068206D01*
X292001Y-1082645D01*
X292001Y-1099355D01*
X285607Y-1114791D01*
X273791Y-1126607D01*
X258355Y-1133001D01*
X241645Y-1133001D01*
G37*
%LPD*%
%LPC*%
G36*
X541645Y-1133001D02*
X541645Y-1133001D01*
X526209Y-1126607D01*
X514393Y-1114791D01*
X507999Y-1099355D01*
X507999Y-1082645D01*
X513980Y-1068206D01*
X514085Y-1067759D01*
X514198Y-1067314D01*
X514196Y-1067288D01*
X514202Y-1067263D01*
X514158Y-1066803D01*
X514123Y-1066348D01*
X514113Y-1066324D01*
X514111Y-1066298D01*
X513924Y-1065878D01*
X513745Y-1065456D01*
X513726Y-1065432D01*
X513717Y-1065413D01*
X513666Y-1065357D01*
X513330Y-1064938D01*
X493499Y-1045107D01*
X493499Y-899496D01*
X493487Y-899419D01*
X493495Y-899342D01*
X493409Y-898943D01*
X493343Y-898540D01*
X493307Y-898471D01*
X493290Y-898396D01*
X493081Y-898044D01*
X492890Y-897684D01*
X492834Y-897630D01*
X492794Y-897564D01*
X492484Y-897298D01*
X492188Y-897016D01*
X492117Y-896984D01*
X492058Y-896933D01*
X491680Y-896780D01*
X491309Y-896608D01*
X491232Y-896599D01*
X491160Y-896570D01*
X490500Y-896497D01*
X485149Y-896497D01*
X482220Y-893567D01*
X482220Y-865803D01*
X482636Y-865387D01*
X482909Y-865006D01*
X483186Y-864630D01*
X483192Y-864614D01*
X483201Y-864600D01*
X483339Y-864153D01*
X483482Y-863707D01*
X483482Y-863690D01*
X483487Y-863674D01*
X483475Y-863208D01*
X483468Y-862739D01*
X483462Y-862723D01*
X483462Y-862706D01*
X483302Y-862268D01*
X483146Y-861825D01*
X483135Y-861812D01*
X483130Y-861796D01*
X482835Y-861428D01*
X482550Y-861062D01*
X482533Y-861050D01*
X482525Y-861039D01*
X482476Y-861008D01*
X482015Y-860668D01*
X481080Y-860128D01*
X479218Y-858266D01*
X477901Y-855986D01*
X477220Y-853443D01*
X477220Y-846220D01*
X498094Y-846220D01*
X498170Y-846207D01*
X498247Y-846216D01*
X498647Y-846129D01*
X499050Y-846063D01*
X499118Y-846027D01*
X499194Y-846011D01*
X499545Y-845801D01*
X499906Y-845610D01*
X499959Y-845554D01*
X500026Y-845514D01*
X500291Y-845204D01*
X500573Y-844908D01*
X500606Y-844837D01*
X500656Y-844779D01*
X500809Y-844400D01*
X500982Y-844030D01*
X500990Y-843952D01*
X501016Y-843888D01*
X501063Y-844177D01*
X501100Y-844245D01*
X501116Y-844321D01*
X501326Y-844672D01*
X501516Y-845033D01*
X501573Y-845086D01*
X501612Y-845153D01*
X501922Y-845418D01*
X502219Y-845700D01*
X502289Y-845733D01*
X502348Y-845783D01*
X502727Y-845936D01*
X503097Y-846109D01*
X503174Y-846117D01*
X503246Y-846146D01*
X503906Y-846220D01*
X524780Y-846220D01*
X524780Y-853443D01*
X524099Y-855986D01*
X522782Y-858266D01*
X520920Y-860128D01*
X519985Y-860668D01*
X519618Y-860968D01*
X519258Y-861256D01*
X519249Y-861271D01*
X519235Y-861281D01*
X518986Y-861678D01*
X518734Y-862071D01*
X518729Y-862088D01*
X518720Y-862102D01*
X518610Y-862561D01*
X518496Y-863010D01*
X518498Y-863027D01*
X518494Y-863044D01*
X518535Y-863512D01*
X518571Y-863976D01*
X518577Y-863992D01*
X518579Y-864009D01*
X518765Y-864434D01*
X518949Y-864868D01*
X518962Y-864884D01*
X518967Y-864896D01*
X519005Y-864937D01*
X519364Y-865387D01*
X519780Y-865803D01*
X519780Y-893567D01*
X516851Y-896497D01*
X511500Y-896497D01*
X511423Y-896509D01*
X511346Y-896501D01*
X510946Y-896587D01*
X510544Y-896653D01*
X510475Y-896689D01*
X510399Y-896706D01*
X510048Y-896915D01*
X509688Y-897106D01*
X509634Y-897162D01*
X509568Y-897202D01*
X509302Y-897512D01*
X509020Y-897808D01*
X508987Y-897879D01*
X508937Y-897938D01*
X508784Y-898316D01*
X508612Y-898687D01*
X508603Y-898764D01*
X508574Y-898836D01*
X508501Y-899496D01*
X508501Y-1037651D01*
X508559Y-1038005D01*
X508586Y-1038361D01*
X508636Y-1038479D01*
X508657Y-1038607D01*
X508824Y-1038923D01*
X508964Y-1039253D01*
X509067Y-1039381D01*
X509110Y-1039463D01*
X509203Y-1039551D01*
X509379Y-1039772D01*
X523938Y-1054330D01*
X524309Y-1054597D01*
X524679Y-1054872D01*
X524703Y-1054881D01*
X524724Y-1054895D01*
X525160Y-1055030D01*
X525599Y-1055173D01*
X525625Y-1055173D01*
X525650Y-1055181D01*
X526109Y-1055169D01*
X526568Y-1055165D01*
X526598Y-1055156D01*
X526618Y-1055156D01*
X526690Y-1055130D01*
X527206Y-1054980D01*
X541645Y-1048999D01*
X558355Y-1048999D01*
X573791Y-1055393D01*
X585607Y-1067209D01*
X592001Y-1082645D01*
X592001Y-1099355D01*
X585607Y-1114791D01*
X573791Y-1126607D01*
X558355Y-1133001D01*
X541645Y-1133001D01*
G37*
%LPD*%
%LPC*%
G36*
X341645Y-1133001D02*
X341645Y-1133001D01*
X326209Y-1126607D01*
X314393Y-1114791D01*
X307999Y-1099355D01*
X307999Y-1082645D01*
X314393Y-1067209D01*
X326209Y-1055393D01*
X341645Y-1048999D01*
X358355Y-1048999D01*
X372794Y-1054980D01*
X373241Y-1055085D01*
X373686Y-1055198D01*
X373712Y-1055196D01*
X373737Y-1055202D01*
X374197Y-1055158D01*
X374652Y-1055123D01*
X374675Y-1055113D01*
X374701Y-1055111D01*
X375122Y-1054924D01*
X375544Y-1054745D01*
X375568Y-1054726D01*
X375587Y-1054717D01*
X375643Y-1054666D01*
X376062Y-1054330D01*
X382621Y-1047772D01*
X382830Y-1047481D01*
X383063Y-1047209D01*
X383111Y-1047089D01*
X383186Y-1046985D01*
X383291Y-1046643D01*
X383426Y-1046311D01*
X383444Y-1046148D01*
X383471Y-1046059D01*
X383468Y-1045931D01*
X383499Y-1045651D01*
X383499Y-899496D01*
X383487Y-899419D01*
X383495Y-899342D01*
X383409Y-898943D01*
X383343Y-898540D01*
X383307Y-898471D01*
X383290Y-898396D01*
X383081Y-898044D01*
X382890Y-897684D01*
X382834Y-897630D01*
X382794Y-897564D01*
X382484Y-897298D01*
X382188Y-897016D01*
X382117Y-896984D01*
X382058Y-896933D01*
X381680Y-896780D01*
X381309Y-896608D01*
X381232Y-896599D01*
X381160Y-896570D01*
X380500Y-896497D01*
X375149Y-896497D01*
X372220Y-893567D01*
X372220Y-865803D01*
X372636Y-865387D01*
X372909Y-865006D01*
X373186Y-864630D01*
X373192Y-864614D01*
X373201Y-864600D01*
X373339Y-864153D01*
X373482Y-863707D01*
X373482Y-863690D01*
X373487Y-863674D01*
X373475Y-863208D01*
X373468Y-862739D01*
X373462Y-862723D01*
X373462Y-862706D01*
X373302Y-862268D01*
X373146Y-861825D01*
X373135Y-861812D01*
X373130Y-861796D01*
X372835Y-861428D01*
X372550Y-861062D01*
X372533Y-861050D01*
X372525Y-861039D01*
X372476Y-861008D01*
X372015Y-860668D01*
X371080Y-860128D01*
X369218Y-858266D01*
X367901Y-855986D01*
X367220Y-853443D01*
X367220Y-846220D01*
X388094Y-846220D01*
X388170Y-846207D01*
X388247Y-846216D01*
X388647Y-846129D01*
X389050Y-846063D01*
X389118Y-846027D01*
X389194Y-846011D01*
X389545Y-845801D01*
X389906Y-845610D01*
X389959Y-845554D01*
X390026Y-845514D01*
X390291Y-845204D01*
X390573Y-844908D01*
X390606Y-844837D01*
X390656Y-844779D01*
X390809Y-844400D01*
X390982Y-844030D01*
X390990Y-843952D01*
X391016Y-843888D01*
X391063Y-844177D01*
X391100Y-844245D01*
X391116Y-844321D01*
X391326Y-844672D01*
X391516Y-845033D01*
X391573Y-845086D01*
X391612Y-845153D01*
X391922Y-845418D01*
X392219Y-845700D01*
X392289Y-845733D01*
X392348Y-845783D01*
X392727Y-845936D01*
X393097Y-846109D01*
X393174Y-846117D01*
X393246Y-846146D01*
X393906Y-846220D01*
X414780Y-846220D01*
X414780Y-853443D01*
X414099Y-855986D01*
X412782Y-858266D01*
X410920Y-860128D01*
X409985Y-860668D01*
X409618Y-860968D01*
X409258Y-861256D01*
X409249Y-861271D01*
X409235Y-861281D01*
X408986Y-861678D01*
X408734Y-862071D01*
X408729Y-862088D01*
X408720Y-862102D01*
X408610Y-862561D01*
X408496Y-863010D01*
X408498Y-863027D01*
X408494Y-863044D01*
X408535Y-863512D01*
X408571Y-863976D01*
X408577Y-863992D01*
X408579Y-864009D01*
X408765Y-864434D01*
X408949Y-864868D01*
X408962Y-864884D01*
X408967Y-864896D01*
X409005Y-864937D01*
X409364Y-865387D01*
X409780Y-865803D01*
X409780Y-893567D01*
X406851Y-896497D01*
X401500Y-896497D01*
X401423Y-896509D01*
X401346Y-896501D01*
X400946Y-896587D01*
X400544Y-896653D01*
X400475Y-896689D01*
X400399Y-896706D01*
X400048Y-896915D01*
X399688Y-897106D01*
X399634Y-897162D01*
X399568Y-897202D01*
X399302Y-897512D01*
X399020Y-897808D01*
X398987Y-897879D01*
X398937Y-897938D01*
X398784Y-898316D01*
X398612Y-898687D01*
X398603Y-898764D01*
X398574Y-898836D01*
X398501Y-899496D01*
X398501Y-1053107D01*
X386670Y-1064938D01*
X386403Y-1065309D01*
X386127Y-1065679D01*
X386119Y-1065703D01*
X386104Y-1065724D01*
X385970Y-1066160D01*
X385827Y-1066599D01*
X385827Y-1066625D01*
X385819Y-1066650D01*
X385831Y-1067109D01*
X385835Y-1067568D01*
X385844Y-1067598D01*
X385844Y-1067618D01*
X385870Y-1067690D01*
X386020Y-1068206D01*
X392001Y-1082645D01*
X392001Y-1099355D01*
X385607Y-1114791D01*
X373791Y-1126607D01*
X358355Y-1133001D01*
X341645Y-1133001D01*
G37*
%LPD*%
%LPC*%
G36*
X441645Y-1133001D02*
X441645Y-1133001D01*
X426209Y-1126607D01*
X414393Y-1114791D01*
X407999Y-1099355D01*
X407999Y-1082645D01*
X414393Y-1067209D01*
X426209Y-1055393D01*
X436648Y-1051069D01*
X437037Y-1050828D01*
X437432Y-1050592D01*
X437449Y-1050573D01*
X437471Y-1050559D01*
X437763Y-1050206D01*
X438063Y-1049857D01*
X438072Y-1049833D01*
X438089Y-1049813D01*
X438253Y-1049386D01*
X438426Y-1048959D01*
X438429Y-1048928D01*
X438437Y-1048909D01*
X438440Y-1048832D01*
X438499Y-1048298D01*
X438499Y-899496D01*
X438487Y-899419D01*
X438495Y-899342D01*
X438409Y-898943D01*
X438343Y-898540D01*
X438307Y-898471D01*
X438290Y-898396D01*
X438081Y-898044D01*
X437890Y-897684D01*
X437834Y-897630D01*
X437794Y-897564D01*
X437484Y-897298D01*
X437188Y-897016D01*
X437117Y-896984D01*
X437058Y-896933D01*
X436680Y-896780D01*
X436309Y-896608D01*
X436232Y-896599D01*
X436160Y-896570D01*
X435500Y-896497D01*
X430149Y-896497D01*
X427220Y-893567D01*
X427220Y-865803D01*
X427636Y-865387D01*
X427909Y-865006D01*
X428186Y-864630D01*
X428192Y-864614D01*
X428201Y-864600D01*
X428339Y-864153D01*
X428482Y-863707D01*
X428482Y-863690D01*
X428487Y-863674D01*
X428475Y-863208D01*
X428468Y-862739D01*
X428462Y-862723D01*
X428462Y-862706D01*
X428302Y-862268D01*
X428146Y-861825D01*
X428135Y-861812D01*
X428130Y-861796D01*
X427835Y-861428D01*
X427550Y-861062D01*
X427533Y-861050D01*
X427525Y-861039D01*
X427476Y-861008D01*
X427015Y-860668D01*
X426080Y-860128D01*
X424218Y-858266D01*
X422901Y-855986D01*
X422220Y-853443D01*
X422220Y-846220D01*
X443094Y-846220D01*
X443170Y-846207D01*
X443247Y-846216D01*
X443647Y-846129D01*
X444050Y-846063D01*
X444118Y-846027D01*
X444194Y-846011D01*
X444545Y-845801D01*
X444906Y-845610D01*
X444959Y-845554D01*
X445026Y-845514D01*
X445291Y-845204D01*
X445573Y-844908D01*
X445606Y-844837D01*
X445656Y-844779D01*
X445809Y-844400D01*
X445982Y-844030D01*
X445990Y-843952D01*
X446016Y-843888D01*
X446063Y-844177D01*
X446100Y-844245D01*
X446116Y-844321D01*
X446326Y-844672D01*
X446516Y-845033D01*
X446573Y-845086D01*
X446612Y-845153D01*
X446922Y-845418D01*
X447219Y-845700D01*
X447289Y-845733D01*
X447348Y-845783D01*
X447727Y-845936D01*
X448097Y-846109D01*
X448174Y-846117D01*
X448246Y-846146D01*
X448906Y-846220D01*
X469780Y-846220D01*
X469780Y-853443D01*
X469099Y-855986D01*
X467782Y-858266D01*
X465920Y-860128D01*
X464985Y-860668D01*
X464618Y-860968D01*
X464258Y-861256D01*
X464249Y-861271D01*
X464235Y-861281D01*
X463986Y-861678D01*
X463734Y-862071D01*
X463729Y-862088D01*
X463720Y-862102D01*
X463610Y-862561D01*
X463496Y-863010D01*
X463498Y-863027D01*
X463494Y-863044D01*
X463535Y-863512D01*
X463571Y-863976D01*
X463577Y-863992D01*
X463579Y-864009D01*
X463765Y-864434D01*
X463949Y-864868D01*
X463962Y-864884D01*
X463967Y-864896D01*
X464005Y-864937D01*
X464364Y-865387D01*
X464780Y-865803D01*
X464780Y-893567D01*
X461851Y-896497D01*
X456500Y-896497D01*
X456423Y-896509D01*
X456346Y-896501D01*
X455946Y-896587D01*
X455544Y-896653D01*
X455475Y-896689D01*
X455399Y-896706D01*
X455048Y-896915D01*
X454688Y-897106D01*
X454634Y-897162D01*
X454568Y-897202D01*
X454302Y-897512D01*
X454020Y-897808D01*
X453987Y-897879D01*
X453937Y-897938D01*
X453784Y-898316D01*
X453612Y-898687D01*
X453603Y-898764D01*
X453574Y-898836D01*
X453501Y-899496D01*
X453501Y-1046000D01*
X453513Y-1046077D01*
X453505Y-1046154D01*
X453591Y-1046553D01*
X453657Y-1046956D01*
X453693Y-1047024D01*
X453710Y-1047100D01*
X453919Y-1047452D01*
X454110Y-1047812D01*
X454166Y-1047866D01*
X454206Y-1047932D01*
X454516Y-1048198D01*
X454812Y-1048480D01*
X454883Y-1048512D01*
X454942Y-1048563D01*
X455320Y-1048716D01*
X455691Y-1048888D01*
X455768Y-1048897D01*
X455840Y-1048926D01*
X456500Y-1048999D01*
X458355Y-1048999D01*
X473791Y-1055393D01*
X485607Y-1067209D01*
X492001Y-1082645D01*
X492001Y-1099355D01*
X485607Y-1114791D01*
X473791Y-1126607D01*
X458355Y-1133001D01*
X441645Y-1133001D01*
G37*
%LPD*%
%LPC*%
G36*
X488183Y418999D02*
X488183Y418999D01*
X485640Y419681D01*
X483359Y420997D01*
X481236Y423121D01*
X480945Y423330D01*
X480673Y423563D01*
X480554Y423611D01*
X480449Y423686D01*
X480107Y423791D01*
X479775Y423926D01*
X479613Y423944D01*
X479523Y423971D01*
X479395Y423968D01*
X479115Y423999D01*
X422429Y423999D01*
X419499Y426929D01*
X419499Y439071D01*
X421307Y440879D01*
X421472Y441108D01*
X421666Y441313D01*
X421753Y441499D01*
X421873Y441666D01*
X421956Y441935D01*
X422075Y442191D01*
X422097Y442395D01*
X422158Y442592D01*
X422151Y442873D01*
X422182Y443154D01*
X422138Y443355D01*
X422133Y443560D01*
X422036Y443825D01*
X421977Y444100D01*
X421871Y444277D01*
X421801Y444470D01*
X421625Y444690D01*
X421480Y444932D01*
X421324Y445066D01*
X421196Y445227D01*
X420959Y445379D01*
X420745Y445563D01*
X420554Y445640D01*
X420381Y445751D01*
X420108Y445820D01*
X419847Y445926D01*
X419566Y445957D01*
X419442Y445988D01*
X419349Y445981D01*
X419187Y445999D01*
X403041Y445999D01*
X402688Y445941D01*
X402331Y445914D01*
X402212Y445864D01*
X402085Y445843D01*
X401769Y445676D01*
X401439Y445536D01*
X401311Y445433D01*
X401229Y445390D01*
X401141Y445297D01*
X400921Y445121D01*
X394799Y438999D01*
X383201Y438999D01*
X374999Y447201D01*
X374999Y458799D01*
X383201Y467001D01*
X394799Y467001D01*
X399921Y461879D01*
X400211Y461670D01*
X400483Y461437D01*
X400603Y461389D01*
X400707Y461314D01*
X401049Y461208D01*
X401381Y461074D01*
X401544Y461056D01*
X401633Y461029D01*
X401761Y461032D01*
X402041Y461001D01*
X423151Y461001D01*
X423429Y461046D01*
X423711Y461053D01*
X423904Y461124D01*
X424107Y461157D01*
X424356Y461289D01*
X424621Y461386D01*
X424782Y461514D01*
X424963Y461610D01*
X425157Y461814D01*
X425378Y461991D01*
X425489Y462163D01*
X425631Y462312D01*
X425750Y462568D01*
X425902Y462805D01*
X425952Y463004D01*
X426039Y463191D01*
X426070Y463471D01*
X426139Y463744D01*
X426124Y463949D01*
X426146Y464154D01*
X426086Y464430D01*
X426065Y464710D01*
X425985Y464899D01*
X425941Y465100D01*
X425797Y465342D01*
X425687Y465602D01*
X425510Y465822D01*
X425445Y465932D01*
X425374Y465993D01*
X425272Y466121D01*
X418031Y473361D01*
X412759Y478633D01*
X412759Y486000D01*
X412747Y486077D01*
X412755Y486154D01*
X412669Y486553D01*
X412603Y486956D01*
X412566Y487024D01*
X412550Y487100D01*
X412340Y487452D01*
X412150Y487812D01*
X412093Y487866D01*
X412054Y487932D01*
X411744Y488198D01*
X411447Y488480D01*
X411377Y488512D01*
X411318Y488563D01*
X410939Y488716D01*
X410569Y488888D01*
X410492Y488897D01*
X410420Y488926D01*
X409760Y488999D01*
X405688Y488999D01*
X402759Y491929D01*
X402759Y546071D01*
X405688Y549001D01*
X434831Y549001D01*
X437760Y546071D01*
X437760Y491929D01*
X434831Y488999D01*
X430849Y488999D01*
X430571Y488954D01*
X430289Y488946D01*
X430096Y488876D01*
X429893Y488843D01*
X429644Y488711D01*
X429379Y488614D01*
X429218Y488486D01*
X429037Y488390D01*
X428843Y488186D01*
X428622Y488009D01*
X428511Y487836D01*
X428369Y487688D01*
X428250Y487432D01*
X428098Y487195D01*
X428048Y486996D01*
X427961Y486809D01*
X427930Y486529D01*
X427861Y486256D01*
X427876Y486051D01*
X427854Y485846D01*
X427913Y485570D01*
X427935Y485290D01*
X428015Y485101D01*
X428059Y484900D01*
X428203Y484658D01*
X428313Y484398D01*
X428490Y484177D01*
X428555Y484068D01*
X428626Y484007D01*
X428728Y483879D01*
X440228Y472379D01*
X440519Y472170D01*
X440791Y471937D01*
X440911Y471889D01*
X441015Y471814D01*
X441357Y471708D01*
X441689Y471574D01*
X441851Y471556D01*
X441941Y471529D01*
X442069Y471532D01*
X442349Y471501D01*
X474107Y471501D01*
X487879Y457728D01*
X488108Y457564D01*
X488313Y457369D01*
X488499Y457282D01*
X488666Y457163D01*
X488935Y457080D01*
X489191Y456961D01*
X489395Y456938D01*
X489592Y456878D01*
X489874Y456885D01*
X490154Y456854D01*
X490355Y456897D01*
X490423Y456899D01*
X490175Y456808D01*
X489899Y456749D01*
X489723Y456643D01*
X489530Y456573D01*
X489309Y456397D01*
X489068Y456252D01*
X488934Y456096D01*
X488773Y455968D01*
X488620Y455731D01*
X488437Y455517D01*
X488360Y455326D01*
X488249Y455153D01*
X488180Y454880D01*
X488074Y454619D01*
X488043Y454338D01*
X488012Y454214D01*
X488019Y454121D01*
X488001Y453959D01*
X488001Y450000D01*
X488013Y449923D01*
X488005Y449846D01*
X488091Y449446D01*
X488157Y449044D01*
X488193Y448975D01*
X488210Y448899D01*
X488419Y448548D01*
X488610Y448188D01*
X488666Y448134D01*
X488706Y448068D01*
X489016Y447802D01*
X489312Y447520D01*
X489383Y447487D01*
X489442Y447437D01*
X489820Y447284D01*
X490191Y447112D01*
X490268Y447103D01*
X490340Y447074D01*
X490500Y447056D01*
X490500Y433001D01*
X490500Y433000D01*
X490500Y432999D01*
X490500Y418999D01*
X488183Y418999D01*
G37*
%LPD*%
%LPC*%
G36*
X496500Y418999D02*
X496500Y418999D01*
X496500Y432999D01*
X496500Y433000D01*
X496500Y433001D01*
X496500Y447442D01*
X496590Y447514D01*
X496771Y447610D01*
X496965Y447814D01*
X497185Y447991D01*
X497297Y448163D01*
X497438Y448312D01*
X497557Y448568D01*
X497710Y448805D01*
X497760Y449004D01*
X497847Y449191D01*
X497878Y449471D01*
X497947Y449744D01*
X497931Y449949D01*
X497954Y450154D01*
X497894Y450430D01*
X497872Y450710D01*
X497792Y450899D01*
X497749Y451100D01*
X497604Y451342D01*
X497494Y451602D01*
X497318Y451822D01*
X497252Y451932D01*
X497182Y451993D01*
X497079Y452121D01*
X493121Y456079D01*
X492892Y456244D01*
X492687Y456438D01*
X492501Y456525D01*
X492334Y456645D01*
X492065Y456728D01*
X491809Y456847D01*
X491605Y456869D01*
X491408Y456930D01*
X491126Y456923D01*
X490846Y456954D01*
X490645Y456910D01*
X490577Y456909D01*
X490825Y456999D01*
X491100Y457059D01*
X491277Y457164D01*
X491470Y457235D01*
X491690Y457411D01*
X491932Y457555D01*
X492066Y457711D01*
X492227Y457840D01*
X492379Y458076D01*
X492563Y458291D01*
X492640Y458482D01*
X492751Y458654D01*
X492820Y458927D01*
X492926Y459189D01*
X492957Y459469D01*
X492988Y459593D01*
X492981Y459686D01*
X492999Y459849D01*
X492999Y467799D01*
X501201Y476001D01*
X512799Y476001D01*
X521001Y467799D01*
X521001Y459849D01*
X521046Y459571D01*
X521053Y459289D01*
X521124Y459096D01*
X521157Y458893D01*
X521289Y458644D01*
X521386Y458379D01*
X521514Y458218D01*
X521610Y458037D01*
X521814Y457843D01*
X521991Y457622D01*
X522163Y457511D01*
X522312Y457369D01*
X522568Y457250D01*
X522805Y457098D01*
X523004Y457048D01*
X523191Y456961D01*
X523471Y456930D01*
X523744Y456861D01*
X523949Y456876D01*
X524154Y456854D01*
X524430Y456913D01*
X524710Y456935D01*
X524899Y457015D01*
X525100Y457059D01*
X525342Y457203D01*
X525602Y457313D01*
X525822Y457490D01*
X525932Y457555D01*
X525993Y457626D01*
X526121Y457728D01*
X539893Y471501D01*
X556651Y471501D01*
X557005Y471559D01*
X557361Y471586D01*
X557479Y471636D01*
X557607Y471657D01*
X557923Y471824D01*
X558253Y471964D01*
X558381Y472067D01*
X558463Y472110D01*
X558551Y472203D01*
X558772Y472379D01*
X569361Y482969D01*
X569570Y483259D01*
X569803Y483531D01*
X569851Y483651D01*
X569926Y483755D01*
X570032Y484097D01*
X570166Y484429D01*
X570184Y484592D01*
X570211Y484681D01*
X570208Y484809D01*
X570239Y485089D01*
X570239Y486000D01*
X570227Y486077D01*
X570235Y486154D01*
X570149Y486553D01*
X570083Y486956D01*
X570047Y487024D01*
X570030Y487100D01*
X569821Y487452D01*
X569630Y487812D01*
X569574Y487866D01*
X569534Y487932D01*
X569224Y488198D01*
X568928Y488480D01*
X568857Y488512D01*
X568798Y488563D01*
X568420Y488716D01*
X568049Y488888D01*
X567972Y488897D01*
X567900Y488926D01*
X567240Y488999D01*
X563169Y488999D01*
X560239Y491929D01*
X560239Y546071D01*
X563169Y549001D01*
X592311Y549001D01*
X595241Y546071D01*
X595241Y491929D01*
X592311Y488999D01*
X588240Y488999D01*
X588164Y488987D01*
X588086Y488995D01*
X587687Y488909D01*
X587284Y488843D01*
X587216Y488807D01*
X587140Y488790D01*
X586788Y488581D01*
X586428Y488390D01*
X586374Y488334D01*
X586308Y488294D01*
X586042Y487984D01*
X585760Y487688D01*
X585728Y487617D01*
X585677Y487558D01*
X585524Y487180D01*
X585352Y486809D01*
X585343Y486732D01*
X585314Y486660D01*
X585241Y486000D01*
X585241Y477633D01*
X564107Y456499D01*
X547349Y456499D01*
X546995Y456441D01*
X546639Y456414D01*
X546520Y456364D01*
X546393Y456343D01*
X546077Y456175D01*
X545747Y456036D01*
X545619Y455933D01*
X545537Y455890D01*
X545449Y455797D01*
X545228Y455621D01*
X540879Y451272D01*
X540670Y450981D01*
X540437Y450709D01*
X540389Y450589D01*
X540314Y450485D01*
X540208Y450143D01*
X540074Y449811D01*
X540056Y449648D01*
X540029Y449559D01*
X540032Y449431D01*
X540001Y449151D01*
X540001Y445000D01*
X540010Y444941D01*
X540005Y444890D01*
X540008Y444875D01*
X540005Y444846D01*
X540091Y444446D01*
X540157Y444044D01*
X540193Y443975D01*
X540210Y443899D01*
X540419Y443548D01*
X540610Y443188D01*
X540666Y443134D01*
X540706Y443068D01*
X541016Y442802D01*
X541312Y442520D01*
X541383Y442487D01*
X541442Y442437D01*
X541820Y442284D01*
X542191Y442112D01*
X542268Y442103D01*
X542340Y442074D01*
X543000Y442001D01*
X577571Y442001D01*
X580501Y439071D01*
X580501Y426929D01*
X577571Y423999D01*
X507885Y423999D01*
X507531Y423941D01*
X507174Y423914D01*
X507056Y423864D01*
X506929Y423843D01*
X506613Y423675D01*
X506283Y423536D01*
X506155Y423433D01*
X506072Y423390D01*
X505984Y423297D01*
X505764Y423121D01*
X503641Y420997D01*
X501360Y419681D01*
X498817Y418999D01*
X496500Y418999D01*
G37*
%LPD*%
%LPC*%
G36*
X241645Y-1233001D02*
X241645Y-1233001D01*
X226209Y-1226607D01*
X214393Y-1214791D01*
X207999Y-1199355D01*
X207999Y-1182645D01*
X214393Y-1167209D01*
X226209Y-1155393D01*
X241645Y-1148999D01*
X258355Y-1148999D01*
X273791Y-1155393D01*
X285607Y-1167209D01*
X292001Y-1182645D01*
X292001Y-1199355D01*
X285607Y-1214791D01*
X273791Y-1226607D01*
X258355Y-1233001D01*
X241645Y-1233001D01*
G37*
%LPD*%
%LPC*%
G36*
X641645Y-1233001D02*
X641645Y-1233001D01*
X626209Y-1226607D01*
X614393Y-1214791D01*
X607999Y-1199355D01*
X607999Y-1182645D01*
X614393Y-1167209D01*
X626209Y-1155393D01*
X641645Y-1148999D01*
X658355Y-1148999D01*
X673791Y-1155393D01*
X685607Y-1167209D01*
X692001Y-1182645D01*
X692001Y-1199355D01*
X685607Y-1214791D01*
X673791Y-1226607D01*
X658355Y-1233001D01*
X641645Y-1233001D01*
G37*
%LPD*%
%LPC*%
G36*
X541645Y-1233001D02*
X541645Y-1233001D01*
X526209Y-1226607D01*
X514393Y-1214791D01*
X507999Y-1199355D01*
X507999Y-1182645D01*
X514393Y-1167209D01*
X526209Y-1155393D01*
X541645Y-1148999D01*
X558355Y-1148999D01*
X573791Y-1155393D01*
X585607Y-1167209D01*
X592001Y-1182645D01*
X592001Y-1199355D01*
X585607Y-1214791D01*
X573791Y-1226607D01*
X558355Y-1233001D01*
X541645Y-1233001D01*
G37*
%LPD*%
%LPC*%
G36*
X341645Y-1233001D02*
X341645Y-1233001D01*
X326209Y-1226607D01*
X314393Y-1214791D01*
X307999Y-1199355D01*
X307999Y-1182645D01*
X314393Y-1167209D01*
X326209Y-1155393D01*
X341645Y-1148999D01*
X358355Y-1148999D01*
X373791Y-1155393D01*
X385607Y-1167209D01*
X392001Y-1182645D01*
X392001Y-1199355D01*
X385607Y-1214791D01*
X373791Y-1226607D01*
X358355Y-1233001D01*
X341645Y-1233001D01*
G37*
%LPD*%
%LPC*%
G36*
X441645Y-1233001D02*
X441645Y-1233001D01*
X426209Y-1226607D01*
X414393Y-1214791D01*
X407999Y-1199355D01*
X407999Y-1182645D01*
X414393Y-1167209D01*
X426209Y-1155393D01*
X441645Y-1148999D01*
X458355Y-1148999D01*
X473791Y-1155393D01*
X485607Y-1167209D01*
X492001Y-1182645D01*
X492001Y-1199355D01*
X485607Y-1214791D01*
X473791Y-1226607D01*
X458355Y-1233001D01*
X441645Y-1233001D01*
G37*
%LPD*%
%LPC*%
G36*
X155999Y-1196999D02*
X155999Y-1196999D01*
X196636Y-1196999D01*
X195843Y-1202006D01*
X193557Y-1209042D01*
X190199Y-1215634D01*
X185850Y-1221619D01*
X180619Y-1226850D01*
X174634Y-1231199D01*
X168042Y-1234557D01*
X161006Y-1236843D01*
X155999Y-1237636D01*
X155999Y-1196999D01*
G37*
%LPD*%
%LPC*%
G36*
X138994Y-1236843D02*
X138994Y-1236843D01*
X131958Y-1234557D01*
X125366Y-1231199D01*
X119381Y-1226850D01*
X114150Y-1221619D01*
X109801Y-1215634D01*
X106443Y-1209042D01*
X104157Y-1202006D01*
X103364Y-1196999D01*
X144001Y-1196999D01*
X144001Y-1237636D01*
X138994Y-1236843D01*
G37*
%LPD*%
%LPC*%
G36*
X155999Y-1185001D02*
X155999Y-1185001D01*
X155999Y-1144364D01*
X161006Y-1145157D01*
X168042Y-1147443D01*
X174634Y-1150801D01*
X180619Y-1155150D01*
X185850Y-1160381D01*
X190199Y-1166366D01*
X193557Y-1172958D01*
X195843Y-1179994D01*
X196636Y-1185001D01*
X155999Y-1185001D01*
G37*
%LPD*%
%LPC*%
G36*
X103364Y-1185001D02*
X103364Y-1185001D01*
X104157Y-1179994D01*
X106443Y-1172958D01*
X109801Y-1166366D01*
X114150Y-1160381D01*
X119381Y-1155150D01*
X125366Y-1150801D01*
X131958Y-1147443D01*
X138994Y-1145157D01*
X144001Y-1144364D01*
X144001Y-1185001D01*
X103364Y-1185001D01*
G37*
%LPD*%
%LPC*%
G36*
X726905Y-834410D02*
X726905Y-834410D01*
X726905Y-818503D01*
X736096Y-818503D01*
X738640Y-819185D01*
X740920Y-820501D01*
X742782Y-822363D01*
X744099Y-824644D01*
X744780Y-827187D01*
X744780Y-834410D01*
X726905Y-834410D01*
G37*
%LPD*%
%LPC*%
G36*
X616905Y-834410D02*
X616905Y-834410D01*
X616905Y-818503D01*
X626096Y-818503D01*
X628640Y-819185D01*
X630920Y-820501D01*
X632782Y-822363D01*
X634099Y-824644D01*
X634780Y-827187D01*
X634780Y-834410D01*
X616905Y-834410D01*
G37*
%LPD*%
%LPC*%
G36*
X286905Y-834410D02*
X286905Y-834410D01*
X286905Y-818503D01*
X296096Y-818503D01*
X298640Y-819185D01*
X300920Y-820501D01*
X302782Y-822363D01*
X304099Y-824644D01*
X304780Y-827187D01*
X304780Y-834410D01*
X286905Y-834410D01*
G37*
%LPD*%
%LPC*%
G36*
X341905Y-834410D02*
X341905Y-834410D01*
X341905Y-818503D01*
X351096Y-818503D01*
X353640Y-819185D01*
X355920Y-820501D01*
X357782Y-822363D01*
X359099Y-824644D01*
X359780Y-827187D01*
X359780Y-834410D01*
X341905Y-834410D01*
G37*
%LPD*%
%LPC*%
G36*
X396905Y-834410D02*
X396905Y-834410D01*
X396905Y-818503D01*
X406096Y-818503D01*
X408640Y-819185D01*
X410920Y-820501D01*
X412782Y-822363D01*
X414099Y-824644D01*
X414780Y-827187D01*
X414780Y-834410D01*
X396905Y-834410D01*
G37*
%LPD*%
%LPC*%
G36*
X561905Y-834410D02*
X561905Y-834410D01*
X561905Y-818503D01*
X571096Y-818503D01*
X573640Y-819185D01*
X575920Y-820501D01*
X577782Y-822363D01*
X579099Y-824644D01*
X579780Y-827187D01*
X579780Y-834410D01*
X561905Y-834410D01*
G37*
%LPD*%
%LPC*%
G36*
X506905Y-834410D02*
X506905Y-834410D01*
X506905Y-818503D01*
X516096Y-818503D01*
X518640Y-819185D01*
X520920Y-820501D01*
X522782Y-822363D01*
X524099Y-824644D01*
X524780Y-827187D01*
X524780Y-834410D01*
X506905Y-834410D01*
G37*
%LPD*%
%LPC*%
G36*
X671905Y-834410D02*
X671905Y-834410D01*
X671905Y-818503D01*
X681096Y-818503D01*
X683640Y-819185D01*
X685920Y-820501D01*
X687782Y-822363D01*
X689099Y-824644D01*
X689780Y-827187D01*
X689780Y-834410D01*
X671905Y-834410D01*
G37*
%LPD*%
%LPC*%
G36*
X451905Y-834410D02*
X451905Y-834410D01*
X451905Y-818503D01*
X461096Y-818503D01*
X463640Y-819185D01*
X465920Y-820501D01*
X467782Y-822363D01*
X469099Y-824644D01*
X469780Y-827187D01*
X469780Y-834410D01*
X451905Y-834410D01*
G37*
%LPD*%
%LPC*%
G36*
X367220Y-834410D02*
X367220Y-834410D01*
X367220Y-827187D01*
X367901Y-824644D01*
X369218Y-822363D01*
X371080Y-820501D01*
X373360Y-819185D01*
X375904Y-818503D01*
X385095Y-818503D01*
X385095Y-834410D01*
X367220Y-834410D01*
G37*
%LPD*%
%LPC*%
G36*
X312220Y-834410D02*
X312220Y-834410D01*
X312220Y-827187D01*
X312901Y-824644D01*
X314218Y-822363D01*
X316080Y-820501D01*
X318360Y-819185D01*
X320904Y-818503D01*
X330095Y-818503D01*
X330095Y-834410D01*
X312220Y-834410D01*
G37*
%LPD*%
%LPC*%
G36*
X257220Y-834410D02*
X257220Y-834410D01*
X257220Y-827187D01*
X257901Y-824644D01*
X259218Y-822363D01*
X261080Y-820501D01*
X263360Y-819185D01*
X265904Y-818503D01*
X275095Y-818503D01*
X275095Y-834410D01*
X257220Y-834410D01*
G37*
%LPD*%
%LPC*%
G36*
X697220Y-834410D02*
X697220Y-834410D01*
X697220Y-827187D01*
X697901Y-824644D01*
X699218Y-822363D01*
X701080Y-820501D01*
X703360Y-819185D01*
X705904Y-818503D01*
X715095Y-818503D01*
X715095Y-834410D01*
X697220Y-834410D01*
G37*
%LPD*%
%LPC*%
G36*
X642220Y-834410D02*
X642220Y-834410D01*
X642220Y-827187D01*
X642901Y-824644D01*
X644218Y-822363D01*
X646080Y-820501D01*
X648360Y-819185D01*
X650904Y-818503D01*
X660095Y-818503D01*
X660095Y-834410D01*
X642220Y-834410D01*
G37*
%LPD*%
%LPC*%
G36*
X587220Y-834410D02*
X587220Y-834410D01*
X587220Y-827187D01*
X587901Y-824644D01*
X589218Y-822363D01*
X591080Y-820501D01*
X593360Y-819185D01*
X595904Y-818503D01*
X605095Y-818503D01*
X605095Y-834410D01*
X587220Y-834410D01*
G37*
%LPD*%
%LPC*%
G36*
X532220Y-834410D02*
X532220Y-834410D01*
X532220Y-827187D01*
X532901Y-824644D01*
X534218Y-822363D01*
X536080Y-820501D01*
X538360Y-819185D01*
X540904Y-818503D01*
X550095Y-818503D01*
X550095Y-834410D01*
X532220Y-834410D01*
G37*
%LPD*%
%LPC*%
G36*
X422220Y-834410D02*
X422220Y-834410D01*
X422220Y-827187D01*
X422901Y-824644D01*
X424218Y-822363D01*
X426080Y-820501D01*
X428360Y-819185D01*
X430904Y-818503D01*
X440095Y-818503D01*
X440095Y-834410D01*
X422220Y-834410D01*
G37*
%LPD*%
%LPC*%
G36*
X477220Y-834410D02*
X477220Y-834410D01*
X477220Y-827187D01*
X477901Y-824644D01*
X479218Y-822363D01*
X481080Y-820501D01*
X483360Y-819185D01*
X485904Y-818503D01*
X495095Y-818503D01*
X495095Y-834410D01*
X477220Y-834410D01*
G37*
%LPD*%
%LPC*%
G36*
X149999Y-1191001D02*
X149999Y-1191001D01*
X149999Y-1190999D01*
X150001Y-1190999D01*
X150001Y-1191001D01*
X149999Y-1191001D01*
G37*
%LPD*%
D10*
X428500Y433000D03*
X441500Y433000D03*
X454500Y433000D03*
X467500Y433000D03*
X480500Y433000D03*
X493500Y433000D03*
X506500Y433000D03*
X519500Y433000D03*
X532500Y433000D03*
X545500Y433000D03*
X558500Y433000D03*
X571500Y433000D03*
X428500Y359000D03*
X441500Y359000D03*
X454500Y359000D03*
X467500Y359000D03*
X480500Y359000D03*
X493500Y359000D03*
X506500Y359000D03*
X519500Y359000D03*
X532500Y359000D03*
X545500Y359000D03*
X558500Y359000D03*
X571500Y359000D03*
D11*
X420260Y519000D03*
X577740Y519000D03*
D12*
X150000Y-1191000D03*
X150000Y-1091000D03*
X250000Y-1191000D03*
X250000Y-1091000D03*
X350000Y-1191000D03*
X350000Y-1091000D03*
X450000Y-1191000D03*
X450000Y-1091000D03*
X550000Y-1191000D03*
X550000Y-1091000D03*
X650000Y-1191000D03*
X650000Y-1091000D03*
X750000Y-1191000D03*
X750000Y-1091000D03*
X850000Y-1191000D03*
X850000Y-1091000D03*
D13*
X666000Y-879685D03*
X666000Y-840315D03*
X611000Y-879685D03*
X611000Y-840315D03*
X556000Y-879685D03*
X556000Y-840315D03*
X501000Y-879685D03*
X501000Y-840315D03*
X446000Y-879685D03*
X446000Y-840315D03*
X391000Y-879685D03*
X391000Y-840315D03*
X336000Y-879685D03*
X336000Y-840315D03*
X281000Y-879685D03*
X281000Y-840315D03*
X721000Y-879685D03*
X721000Y-840315D03*
D14*
X506500Y433000D02*
X506500Y461500D01*
X507000Y462000D01*
D15*
X507000Y462000D03*
D14*
X480500Y454500D02*
X480500Y433000D01*
X471000Y464000D02*
X438000Y464000D01*
X420260Y481740D01*
X420260Y519000D01*
X471000Y464000D02*
X480500Y454500D01*
X428500Y359000D02*
X407000Y337500D01*
X407000Y304000D01*
D15*
X407000Y304000D03*
D14*
X281000Y-879685D02*
X281000Y-960000D01*
X150000Y-1091000D01*
D15*
X425000Y323000D03*
D14*
X441500Y340977D02*
X441500Y359000D01*
X441500Y340977D02*
X425000Y324477D01*
X425000Y323000D01*
X336000Y-879685D02*
X336000Y-1005000D01*
X250000Y-1091000D01*
D15*
X443000Y304000D03*
D14*
X454500Y339835D02*
X454500Y359000D01*
X444500Y305500D02*
X443000Y304000D01*
X444500Y329835D02*
X454500Y339835D01*
X444500Y329835D02*
X444500Y305500D01*
X391000Y-879685D02*
X391000Y-1050000D01*
X350000Y-1091000D01*
D16*
X450000Y-1091000D02*
X456260Y-1084740D01*
D14*
X467500Y329500D02*
X467500Y359000D01*
X467500Y329500D02*
X461000Y323000D01*
D15*
X461000Y323000D03*
D14*
X446000Y-879685D02*
X446000Y-1087000D01*
X450000Y-1091000D01*
D15*
X478000Y304000D03*
D14*
X480500Y332835D02*
X480500Y359000D01*
X480500Y332835D02*
X477500Y329835D01*
X477500Y304500D01*
X478000Y304000D01*
X501000Y-879685D02*
X501000Y-1042000D01*
X550000Y-1091000D01*
X493500Y323500D02*
X493500Y359000D01*
X493500Y323500D02*
X494000Y323000D01*
D15*
X494000Y323000D03*
D14*
X556000Y-879685D02*
X556000Y-997000D01*
X650000Y-1091000D01*
D15*
X511000Y305000D03*
D14*
X506500Y333835D02*
X506500Y359000D01*
X506500Y333835D02*
X510500Y329835D01*
X510500Y305500D01*
X511000Y305000D01*
X611000Y-879685D02*
X611000Y-952000D01*
X750000Y-1091000D01*
D15*
X527000Y324000D03*
D14*
X521000Y357500D02*
X519500Y359000D01*
X521000Y357500D02*
X521000Y329893D01*
X526893Y324000D02*
X527000Y324000D01*
X526893Y324000D02*
X521000Y329893D01*
X666000Y-879685D02*
X666000Y-907000D01*
X850000Y-1091000D01*
D15*
X544000Y306000D03*
D14*
X534000Y357500D02*
X532500Y359000D01*
X534000Y357500D02*
X534000Y341893D01*
X544000Y331893D02*
X544000Y306000D01*
X544000Y331893D02*
X534000Y341893D01*
X721000Y-879685D02*
X721000Y-886000D01*
X900500Y-1065500D01*
X752000Y-1191000D02*
X750000Y-1191000D01*
X900500Y-1120433D02*
X900500Y-1065500D01*
X900500Y-1120433D02*
X878433Y-1142500D01*
X800500Y-1142500D01*
X752000Y-1191000D01*
D15*
X561000Y324000D03*
D14*
X547000Y357500D02*
X545500Y359000D01*
X547000Y357500D02*
X547000Y343893D01*
X561000Y329893D02*
X561000Y324000D01*
X561000Y329893D02*
X547000Y343893D01*
D15*
X389000Y453000D03*
D14*
X460607Y453500D02*
X466000Y448107D01*
X389500Y453500D02*
X389000Y453000D01*
X389500Y453500D02*
X460607Y453500D01*
X466000Y434500D02*
X467500Y433000D01*
X466000Y434500D02*
X466000Y448107D01*
X532500Y453500D02*
X532500Y433000D01*
X543000Y464000D02*
X561000Y464000D01*
X577740Y480740D01*
X577740Y519000D01*
X543000Y464000D02*
X532500Y453500D01*
M02*
