G04 EAGLE Gerber X2 export*
%TF.Part,Single*%
%TF.FileFunction,Paste,Top*%
%TF.FilePolarity,Positive*%
%TF.GenerationSoftware,Autodesk,EAGLE,9.5.2*%
%TF.CreationDate,2020-06-02T19:58:31Z*%
G75*
%MOIN*%
%FSLAX36Y36*%
%LPD*%
%INTop Solder Paste*%
%AMOC8*
5,1,8,0,0,1.08239X$1,22.5*%
G01*
%ADD10R,0.008000X0.008000*%
%ADD11R,0.025000X0.050000*%
%ADD12R,0.027559X0.023622*%


D10*
X428500Y433000D03*
X441500Y433000D03*
X454500Y433000D03*
X467500Y433000D03*
X480500Y433000D03*
X493500Y433000D03*
X506500Y433000D03*
X519500Y433000D03*
X532500Y433000D03*
X545500Y433000D03*
X558500Y433000D03*
X571500Y433000D03*
X428500Y359000D03*
X441500Y359000D03*
X454500Y359000D03*
X467500Y359000D03*
X480500Y359000D03*
X493500Y359000D03*
X506500Y359000D03*
X519500Y359000D03*
X532500Y359000D03*
X545500Y359000D03*
X558500Y359000D03*
X571500Y359000D03*
D11*
X420260Y519000D03*
X577740Y519000D03*
D12*
X666000Y-879685D03*
X666000Y-840315D03*
X611000Y-879685D03*
X611000Y-840315D03*
X556000Y-879685D03*
X556000Y-840315D03*
X501000Y-879685D03*
X501000Y-840315D03*
X446000Y-879685D03*
X446000Y-840315D03*
X391000Y-879685D03*
X391000Y-840315D03*
X336000Y-879685D03*
X336000Y-840315D03*
X281000Y-879685D03*
X281000Y-840315D03*
X721000Y-879685D03*
X721000Y-840315D03*
M02*
