G04 EAGLE Gerber X2 export*
%TF.Part,Single*%
%TF.FileFunction,Profile,NP*%
%TF.FilePolarity,Positive*%
%TF.GenerationSoftware,Autodesk,EAGLE,9.5.2*%
%TF.CreationDate,2020-06-02T19:58:31Z*%
G75*
%MOIN*%
%FSLAX36Y36*%
%LPD*%
%INBoard Outline*%
%AMOC8*
5,1,8,0,0,1.08239X$1,22.5*%
G01*
%ADD10C,0.010000*%


D10*
X-250000Y-1427000D02*
X1250000Y-1427000D01*
X1250000Y725000D01*
X-250000Y725000D01*
X-250000Y-1427000D01*
X-87008Y-1252062D02*
X-87278Y-1256178D01*
X-87816Y-1260267D01*
X-88621Y-1264312D01*
X-89688Y-1268295D01*
X-91014Y-1272201D01*
X-92592Y-1276011D01*
X-94416Y-1279710D01*
X-96478Y-1283282D01*
X-98770Y-1286711D01*
X-101280Y-1289983D01*
X-104000Y-1293084D01*
X-106916Y-1296000D01*
X-110017Y-1298720D01*
X-113289Y-1301230D01*
X-116718Y-1303522D01*
X-120290Y-1305584D01*
X-123989Y-1307408D01*
X-127799Y-1308986D01*
X-131705Y-1310312D01*
X-135688Y-1311379D01*
X-139733Y-1312184D01*
X-143822Y-1312722D01*
X-147938Y-1312992D01*
X-152062Y-1312992D01*
X-156178Y-1312722D01*
X-160267Y-1312184D01*
X-164312Y-1311379D01*
X-168295Y-1310312D01*
X-172201Y-1308986D01*
X-176011Y-1307408D01*
X-179710Y-1305584D01*
X-183282Y-1303522D01*
X-186711Y-1301230D01*
X-189983Y-1298720D01*
X-193084Y-1296000D01*
X-196000Y-1293084D01*
X-198720Y-1289983D01*
X-201230Y-1286711D01*
X-203522Y-1283282D01*
X-205584Y-1279710D01*
X-207408Y-1276011D01*
X-208986Y-1272201D01*
X-210312Y-1268295D01*
X-211379Y-1264312D01*
X-212184Y-1260267D01*
X-212722Y-1256178D01*
X-212992Y-1252062D01*
X-212992Y-1247938D01*
X-212722Y-1243822D01*
X-212184Y-1239733D01*
X-211379Y-1235688D01*
X-210312Y-1231705D01*
X-208986Y-1227799D01*
X-207408Y-1223989D01*
X-205584Y-1220290D01*
X-203522Y-1216718D01*
X-201230Y-1213289D01*
X-198720Y-1210017D01*
X-196000Y-1206916D01*
X-193084Y-1204000D01*
X-189983Y-1201280D01*
X-186711Y-1198770D01*
X-183282Y-1196478D01*
X-179710Y-1194416D01*
X-176011Y-1192592D01*
X-172201Y-1191014D01*
X-168295Y-1189688D01*
X-164312Y-1188621D01*
X-160267Y-1187816D01*
X-156178Y-1187278D01*
X-152062Y-1187008D01*
X-147938Y-1187008D01*
X-143822Y-1187278D01*
X-139733Y-1187816D01*
X-135688Y-1188621D01*
X-131705Y-1189688D01*
X-127799Y-1191014D01*
X-123989Y-1192592D01*
X-120290Y-1194416D01*
X-116718Y-1196478D01*
X-113289Y-1198770D01*
X-110017Y-1201280D01*
X-106916Y-1204000D01*
X-104000Y-1206916D01*
X-101280Y-1210017D01*
X-98770Y-1213289D01*
X-96478Y-1216718D01*
X-94416Y-1220290D01*
X-92592Y-1223989D01*
X-91014Y-1227799D01*
X-89688Y-1231705D01*
X-88621Y-1235688D01*
X-87816Y-1239733D01*
X-87278Y-1243822D01*
X-87008Y-1247938D01*
X-87008Y-1252062D01*
X1212992Y-1252062D02*
X1212722Y-1256178D01*
X1212184Y-1260267D01*
X1211379Y-1264312D01*
X1210312Y-1268295D01*
X1208986Y-1272201D01*
X1207408Y-1276011D01*
X1205584Y-1279710D01*
X1203522Y-1283282D01*
X1201230Y-1286711D01*
X1198720Y-1289983D01*
X1196000Y-1293084D01*
X1193084Y-1296000D01*
X1189983Y-1298720D01*
X1186711Y-1301230D01*
X1183282Y-1303522D01*
X1179710Y-1305584D01*
X1176011Y-1307408D01*
X1172201Y-1308986D01*
X1168295Y-1310312D01*
X1164312Y-1311379D01*
X1160267Y-1312184D01*
X1156178Y-1312722D01*
X1152062Y-1312992D01*
X1147938Y-1312992D01*
X1143822Y-1312722D01*
X1139733Y-1312184D01*
X1135688Y-1311379D01*
X1131705Y-1310312D01*
X1127799Y-1308986D01*
X1123989Y-1307408D01*
X1120290Y-1305584D01*
X1116718Y-1303522D01*
X1113289Y-1301230D01*
X1110017Y-1298720D01*
X1106916Y-1296000D01*
X1104000Y-1293084D01*
X1101280Y-1289983D01*
X1098770Y-1286711D01*
X1096478Y-1283282D01*
X1094416Y-1279710D01*
X1092592Y-1276011D01*
X1091014Y-1272201D01*
X1089688Y-1268295D01*
X1088621Y-1264312D01*
X1087816Y-1260267D01*
X1087278Y-1256178D01*
X1087008Y-1252062D01*
X1087008Y-1247938D01*
X1087278Y-1243822D01*
X1087816Y-1239733D01*
X1088621Y-1235688D01*
X1089688Y-1231705D01*
X1091014Y-1227799D01*
X1092592Y-1223989D01*
X1094416Y-1220290D01*
X1096478Y-1216718D01*
X1098770Y-1213289D01*
X1101280Y-1210017D01*
X1104000Y-1206916D01*
X1106916Y-1204000D01*
X1110017Y-1201280D01*
X1113289Y-1198770D01*
X1116718Y-1196478D01*
X1120290Y-1194416D01*
X1123989Y-1192592D01*
X1127799Y-1191014D01*
X1131705Y-1189688D01*
X1135688Y-1188621D01*
X1139733Y-1187816D01*
X1143822Y-1187278D01*
X1147938Y-1187008D01*
X1152062Y-1187008D01*
X1156178Y-1187278D01*
X1160267Y-1187816D01*
X1164312Y-1188621D01*
X1168295Y-1189688D01*
X1172201Y-1191014D01*
X1176011Y-1192592D01*
X1179710Y-1194416D01*
X1183282Y-1196478D01*
X1186711Y-1198770D01*
X1189983Y-1201280D01*
X1193084Y-1204000D01*
X1196000Y-1206916D01*
X1198720Y-1210017D01*
X1201230Y-1213289D01*
X1203522Y-1216718D01*
X1205584Y-1220290D01*
X1207408Y-1223989D01*
X1208986Y-1227799D01*
X1210312Y-1231705D01*
X1211379Y-1235688D01*
X1212184Y-1239733D01*
X1212722Y-1243822D01*
X1212992Y-1247938D01*
X1212992Y-1252062D01*
X-87008Y-2062D02*
X-87278Y-6178D01*
X-87816Y-10267D01*
X-88621Y-14312D01*
X-89688Y-18295D01*
X-91014Y-22201D01*
X-92592Y-26011D01*
X-94416Y-29710D01*
X-96478Y-33282D01*
X-98770Y-36711D01*
X-101280Y-39983D01*
X-104000Y-43084D01*
X-106916Y-46000D01*
X-110017Y-48720D01*
X-113289Y-51230D01*
X-116718Y-53522D01*
X-120290Y-55584D01*
X-123989Y-57408D01*
X-127799Y-58986D01*
X-131705Y-60312D01*
X-135688Y-61379D01*
X-139733Y-62184D01*
X-143822Y-62722D01*
X-147938Y-62992D01*
X-152062Y-62992D01*
X-156178Y-62722D01*
X-160267Y-62184D01*
X-164312Y-61379D01*
X-168295Y-60312D01*
X-172201Y-58986D01*
X-176011Y-57408D01*
X-179710Y-55584D01*
X-183282Y-53522D01*
X-186711Y-51230D01*
X-189983Y-48720D01*
X-193084Y-46000D01*
X-196000Y-43084D01*
X-198720Y-39983D01*
X-201230Y-36711D01*
X-203522Y-33282D01*
X-205584Y-29710D01*
X-207408Y-26011D01*
X-208986Y-22201D01*
X-210312Y-18295D01*
X-211379Y-14312D01*
X-212184Y-10267D01*
X-212722Y-6178D01*
X-212992Y-2062D01*
X-212992Y2062D01*
X-212722Y6178D01*
X-212184Y10267D01*
X-211379Y14312D01*
X-210312Y18295D01*
X-208986Y22201D01*
X-207408Y26011D01*
X-205584Y29710D01*
X-203522Y33282D01*
X-201230Y36711D01*
X-198720Y39983D01*
X-196000Y43084D01*
X-193084Y46000D01*
X-189983Y48720D01*
X-186711Y51230D01*
X-183282Y53522D01*
X-179710Y55584D01*
X-176011Y57408D01*
X-172201Y58986D01*
X-168295Y60312D01*
X-164312Y61379D01*
X-160267Y62184D01*
X-156178Y62722D01*
X-152062Y62992D01*
X-147938Y62992D01*
X-143822Y62722D01*
X-139733Y62184D01*
X-135688Y61379D01*
X-131705Y60312D01*
X-127799Y58986D01*
X-123989Y57408D01*
X-120290Y55584D01*
X-116718Y53522D01*
X-113289Y51230D01*
X-110017Y48720D01*
X-106916Y46000D01*
X-104000Y43084D01*
X-101280Y39983D01*
X-98770Y36711D01*
X-96478Y33282D01*
X-94416Y29710D01*
X-92592Y26011D01*
X-91014Y22201D01*
X-89688Y18295D01*
X-88621Y14312D01*
X-87816Y10267D01*
X-87278Y6178D01*
X-87008Y2062D01*
X-87008Y-2062D01*
X1212992Y-2062D02*
X1212722Y-6178D01*
X1212184Y-10267D01*
X1211379Y-14312D01*
X1210312Y-18295D01*
X1208986Y-22201D01*
X1207408Y-26011D01*
X1205584Y-29710D01*
X1203522Y-33282D01*
X1201230Y-36711D01*
X1198720Y-39983D01*
X1196000Y-43084D01*
X1193084Y-46000D01*
X1189983Y-48720D01*
X1186711Y-51230D01*
X1183282Y-53522D01*
X1179710Y-55584D01*
X1176011Y-57408D01*
X1172201Y-58986D01*
X1168295Y-60312D01*
X1164312Y-61379D01*
X1160267Y-62184D01*
X1156178Y-62722D01*
X1152062Y-62992D01*
X1147938Y-62992D01*
X1143822Y-62722D01*
X1139733Y-62184D01*
X1135688Y-61379D01*
X1131705Y-60312D01*
X1127799Y-58986D01*
X1123989Y-57408D01*
X1120290Y-55584D01*
X1116718Y-53522D01*
X1113289Y-51230D01*
X1110017Y-48720D01*
X1106916Y-46000D01*
X1104000Y-43084D01*
X1101280Y-39983D01*
X1098770Y-36711D01*
X1096478Y-33282D01*
X1094416Y-29710D01*
X1092592Y-26011D01*
X1091014Y-22201D01*
X1089688Y-18295D01*
X1088621Y-14312D01*
X1087816Y-10267D01*
X1087278Y-6178D01*
X1087008Y-2062D01*
X1087008Y2062D01*
X1087278Y6178D01*
X1087816Y10267D01*
X1088621Y14312D01*
X1089688Y18295D01*
X1091014Y22201D01*
X1092592Y26011D01*
X1094416Y29710D01*
X1096478Y33282D01*
X1098770Y36711D01*
X1101280Y39983D01*
X1104000Y43084D01*
X1106916Y46000D01*
X1110017Y48720D01*
X1113289Y51230D01*
X1116718Y53522D01*
X1120290Y55584D01*
X1123989Y57408D01*
X1127799Y58986D01*
X1131705Y60312D01*
X1135688Y61379D01*
X1139733Y62184D01*
X1143822Y62722D01*
X1147938Y62992D01*
X1152062Y62992D01*
X1156178Y62722D01*
X1160267Y62184D01*
X1164312Y61379D01*
X1168295Y60312D01*
X1172201Y58986D01*
X1176011Y57408D01*
X1179710Y55584D01*
X1183282Y53522D01*
X1186711Y51230D01*
X1189983Y48720D01*
X1193084Y46000D01*
X1196000Y43084D01*
X1198720Y39983D01*
X1201230Y36711D01*
X1203522Y33282D01*
X1205584Y29710D01*
X1207408Y26011D01*
X1208986Y22201D01*
X1210312Y18295D01*
X1211379Y14312D01*
X1212184Y10267D01*
X1212722Y6178D01*
X1212992Y2062D01*
X1212992Y-2062D01*
M02*
