G04 EAGLE Gerber X2 export*
%TF.Part,Single*%
%TF.FileFunction,Paste,Top*%
%TF.FilePolarity,Positive*%
%TF.GenerationSoftware,Autodesk,EAGLE,9.5.2*%
%TF.CreationDate,2020-06-03T15:06:04Z*%
G75*
%MOIN*%
%FSLAX36Y36*%
%LPD*%
%INTop Solder Paste*%
%AMOC8*
5,1,8,0,0,1.08239X$1,22.5*%
G01*
%ADD10R,0.008000X0.008000*%
%ADD11R,0.025000X0.050000*%
%ADD12R,0.027559X0.023622*%


D10*
X427500Y338000D03*
X440500Y338000D03*
X453500Y338000D03*
X466500Y338000D03*
X479500Y338000D03*
X492500Y338000D03*
X505500Y338000D03*
X518500Y338000D03*
X531500Y338000D03*
X544500Y338000D03*
X557500Y338000D03*
X570500Y338000D03*
X427500Y264000D03*
X440500Y264000D03*
X453500Y264000D03*
X466500Y264000D03*
X479500Y264000D03*
X492500Y264000D03*
X505500Y264000D03*
X518500Y264000D03*
X531500Y264000D03*
X544500Y264000D03*
X557500Y264000D03*
X570500Y264000D03*
D11*
X420260Y519000D03*
X577740Y519000D03*
D12*
X666000Y-879685D03*
X666000Y-840315D03*
X611000Y-879685D03*
X611000Y-840315D03*
X556000Y-879685D03*
X556000Y-840315D03*
X501000Y-879685D03*
X501000Y-840315D03*
X446000Y-879685D03*
X446000Y-840315D03*
X391000Y-879685D03*
X391000Y-840315D03*
X336000Y-879685D03*
X336000Y-840315D03*
X281000Y-879685D03*
X281000Y-840315D03*
X721000Y-879685D03*
X721000Y-840315D03*
M02*
