M48
;GenerationSoftware,Autodesk,EAGLE,9.5.2*%
;CreationDate,2020-06-03T15:06:04Z*%
FMAT,2
ICI,OFF
INCH,TZ,00.0000
T2C0.0100
T1C0.0400
%
G90
M72
T1
X1500Y-11910
X1500Y-10910
X2500Y-11910
X2500Y-10910
X3500Y-11910
X3500Y-10910
X4500Y-11910
X4500Y-10910
X5500Y-11910
X5500Y-10910
X6500Y-11910
X6500Y-10910
X7500Y-11910
X7500Y-10910
X8500Y-11910
X8500Y-10910
T2
X5050Y3630
X4060Y2090
X4240Y2280
X4420Y2090
X4600Y2280
X4770Y2090
X4930Y2280
X5100Y2100
X5260Y2290
X5430Y2110
X5600Y2290
X3860Y3670
M30