G04 EAGLE Gerber X2 export*
%TF.Part,Single*%
%TF.FileFunction,Copper,L3,Inr,Mixed*%
%TF.FilePolarity,Positive*%
%TF.GenerationSoftware,Autodesk,EAGLE,9.5.2*%
%TF.CreationDate,2020-06-03T15:06:04Z*%
G75*
%MOIN*%
%FSLAX36Y36*%
%LPD*%
%INInternal Plane 2*%
%AMOC8*
5,1,8,0,0,1.08239X$1,22.5*%
G01*
%ADD10C,0.060000*%
%ADD11C,0.018000*%
%ADD12C,0.005000*%


D10*
X150000Y-1191000D03*
X150000Y-1091000D03*
X250000Y-1191000D03*
X250000Y-1091000D03*
X350000Y-1191000D03*
X350000Y-1091000D03*
X450000Y-1191000D03*
X450000Y-1091000D03*
X550000Y-1191000D03*
X550000Y-1091000D03*
X650000Y-1191000D03*
X650000Y-1091000D03*
X750000Y-1191000D03*
X750000Y-1091000D03*
X850000Y-1191000D03*
X850000Y-1091000D03*
D11*
X505000Y363000D03*
X406000Y209000D03*
X424000Y228000D03*
X442000Y209000D03*
X460000Y228000D03*
X477000Y209000D03*
X493000Y228000D03*
X510000Y210000D03*
X526000Y229000D03*
X543000Y211000D03*
D12*
X543000Y-909000D01*
X700000Y-1066000D01*
X700000Y-1141000D02*
X750000Y-1191000D01*
X700000Y-1141000D02*
X700000Y-1066000D01*
D11*
X560000Y229000D03*
D12*
X560000Y-826000D01*
X801000Y-1067000D01*
X801000Y-1144000D01*
X848000Y-1191000D01*
X850000Y-1191000D01*
D11*
X386000Y367000D03*
D12*
X400500Y-1140500D02*
X400000Y-1141000D01*
X350000Y-1191000D01*
X400000Y-1065000D02*
X386000Y-1051000D01*
X400000Y-1065000D02*
X400000Y-1141000D01*
X386000Y-1051000D02*
X386000Y367000D01*
M02*
