G04 EAGLE Gerber X2 export*
%TF.Part,Single*%
%TF.FileFunction,Copper,L4,Bot,Mixed*%
%TF.FilePolarity,Positive*%
%TF.GenerationSoftware,Autodesk,EAGLE,9.5.2*%
%TF.CreationDate,2020-06-03T15:06:04Z*%
G75*
%MOIN*%
%FSLAX36Y36*%
%LPD*%
%INBottom Copper Layer*%
%AMOC8*
5,1,8,0,0,1.08239X$1,22.5*%
G01*
%ADD10C,0.074000*%
%ADD11C,0.018000*%

G36*
X1231577Y-1411487D02*
X1231577Y-1411487D01*
X1231654Y-1411495D01*
X1232053Y-1411409D01*
X1232456Y-1411343D01*
X1232524Y-1411307D01*
X1232600Y-1411290D01*
X1232952Y-1411081D01*
X1233312Y-1410890D01*
X1233366Y-1410834D01*
X1233432Y-1410794D01*
X1233698Y-1410484D01*
X1233980Y-1410188D01*
X1234012Y-1410117D01*
X1234063Y-1410058D01*
X1234216Y-1409680D01*
X1234388Y-1409309D01*
X1234397Y-1409232D01*
X1234426Y-1409160D01*
X1234499Y-1408500D01*
X1234499Y706500D01*
X1234487Y706577D01*
X1234495Y706654D01*
X1234409Y707053D01*
X1234343Y707456D01*
X1234307Y707524D01*
X1234290Y707600D01*
X1234081Y707952D01*
X1233890Y708312D01*
X1233834Y708366D01*
X1233794Y708432D01*
X1233484Y708698D01*
X1233188Y708980D01*
X1233117Y709012D01*
X1233058Y709063D01*
X1232680Y709216D01*
X1232309Y709388D01*
X1232232Y709397D01*
X1232160Y709426D01*
X1231500Y709499D01*
X-231500Y709499D01*
X-231577Y709487D01*
X-231654Y709495D01*
X-232053Y709409D01*
X-232456Y709343D01*
X-232524Y709307D01*
X-232600Y709290D01*
X-232952Y709081D01*
X-233312Y708890D01*
X-233366Y708834D01*
X-233432Y708794D01*
X-233698Y708484D01*
X-233980Y708188D01*
X-234012Y708117D01*
X-234063Y708058D01*
X-234216Y707680D01*
X-234388Y707309D01*
X-234397Y707232D01*
X-234426Y707160D01*
X-234499Y706500D01*
X-234499Y-1408500D01*
X-234487Y-1408577D01*
X-234495Y-1408654D01*
X-234409Y-1409053D01*
X-234343Y-1409456D01*
X-234307Y-1409524D01*
X-234290Y-1409600D01*
X-234081Y-1409952D01*
X-233890Y-1410312D01*
X-233834Y-1410366D01*
X-233794Y-1410432D01*
X-233484Y-1410698D01*
X-233188Y-1410980D01*
X-233117Y-1411012D01*
X-233058Y-1411063D01*
X-232680Y-1411216D01*
X-232309Y-1411388D01*
X-232232Y-1411397D01*
X-232160Y-1411426D01*
X-231500Y-1411499D01*
X1231500Y-1411499D01*
X1231577Y-1411487D01*
G37*
%LPC*%
G36*
X1134486Y547007D02*
X1134486Y547007D01*
X1105821Y558881D01*
X1083881Y580821D01*
X1072007Y609486D01*
X1072007Y640514D01*
X1083881Y669179D01*
X1105821Y691119D01*
X1134486Y702993D01*
X1165514Y702993D01*
X1194179Y691119D01*
X1216119Y669179D01*
X1227993Y640514D01*
X1227993Y609486D01*
X1216119Y580821D01*
X1194179Y558881D01*
X1165514Y547007D01*
X1134486Y547007D01*
G37*
%LPD*%
%LPC*%
G36*
X-165514Y547007D02*
X-165514Y547007D01*
X-194179Y558881D01*
X-216119Y580821D01*
X-227993Y609486D01*
X-227993Y640514D01*
X-216119Y669179D01*
X-194179Y691119D01*
X-165514Y702993D01*
X-134486Y702993D01*
X-105821Y691119D01*
X-83881Y669179D01*
X-72007Y640514D01*
X-72007Y609486D01*
X-83881Y580821D01*
X-105821Y558881D01*
X-134486Y547007D01*
X-165514Y547007D01*
G37*
%LPD*%
%LPC*%
G36*
X-165514Y-1327993D02*
X-165514Y-1327993D01*
X-194179Y-1316119D01*
X-216119Y-1294179D01*
X-227993Y-1265514D01*
X-227993Y-1234486D01*
X-216119Y-1205821D01*
X-194179Y-1183881D01*
X-165514Y-1172007D01*
X-134486Y-1172007D01*
X-105821Y-1183881D01*
X-83881Y-1205821D01*
X-72007Y-1234486D01*
X-72007Y-1265514D01*
X-83881Y-1294179D01*
X-105821Y-1316119D01*
X-134486Y-1327993D01*
X-165514Y-1327993D01*
G37*
%LPD*%
%LPC*%
G36*
X1134486Y-1327993D02*
X1134486Y-1327993D01*
X1105821Y-1316119D01*
X1083881Y-1294179D01*
X1072007Y-1265514D01*
X1072007Y-1234486D01*
X1083881Y-1205821D01*
X1105821Y-1183881D01*
X1134486Y-1172007D01*
X1165514Y-1172007D01*
X1194179Y-1183881D01*
X1216119Y-1205821D01*
X1227993Y-1234486D01*
X1227993Y-1265514D01*
X1216119Y-1294179D01*
X1194179Y-1316119D01*
X1165514Y-1327993D01*
X1134486Y-1327993D01*
G37*
%LPD*%
%LPC*%
G36*
X1134486Y-77993D02*
X1134486Y-77993D01*
X1105821Y-66119D01*
X1083881Y-44179D01*
X1072007Y-15514D01*
X1072007Y15514D01*
X1083881Y44179D01*
X1105821Y66119D01*
X1134486Y77993D01*
X1165514Y77993D01*
X1194179Y66119D01*
X1216119Y44179D01*
X1227993Y15514D01*
X1227993Y-15514D01*
X1216119Y-44179D01*
X1194179Y-66119D01*
X1165514Y-77993D01*
X1134486Y-77993D01*
G37*
%LPD*%
%LPC*%
G36*
X-165514Y-77993D02*
X-165514Y-77993D01*
X-194179Y-66119D01*
X-216119Y-44179D01*
X-227993Y-15514D01*
X-227993Y15514D01*
X-216119Y44179D01*
X-194179Y66119D01*
X-165514Y77993D01*
X-134486Y77993D01*
X-105821Y66119D01*
X-83881Y44179D01*
X-72007Y15514D01*
X-72007Y-15514D01*
X-83881Y-44179D01*
X-105821Y-66119D01*
X-134486Y-77993D01*
X-165514Y-77993D01*
G37*
%LPD*%
%LPC*%
G36*
X400201Y194999D02*
X400201Y194999D01*
X391999Y203201D01*
X391999Y214799D01*
X400201Y223001D01*
X407000Y223001D01*
X407077Y223013D01*
X407154Y223005D01*
X407553Y223091D01*
X407956Y223157D01*
X408024Y223193D01*
X408100Y223210D01*
X408452Y223419D01*
X408812Y223610D01*
X408866Y223666D01*
X408932Y223706D01*
X409198Y224016D01*
X409480Y224312D01*
X409512Y224383D01*
X409563Y224442D01*
X409716Y224820D01*
X409888Y225191D01*
X409897Y225268D01*
X409926Y225340D01*
X409999Y226000D01*
X409999Y233799D01*
X418201Y242001D01*
X429799Y242001D01*
X438001Y233799D01*
X438001Y226000D01*
X438007Y225963D01*
X438005Y225944D01*
X438012Y225911D01*
X438005Y225846D01*
X438091Y225446D01*
X438157Y225044D01*
X438193Y224975D01*
X438210Y224899D01*
X438419Y224548D01*
X438610Y224188D01*
X438666Y224134D01*
X438706Y224068D01*
X439016Y223802D01*
X439312Y223520D01*
X439383Y223487D01*
X439442Y223437D01*
X439820Y223284D01*
X440191Y223112D01*
X440268Y223103D01*
X440340Y223074D01*
X441000Y223001D01*
X443000Y223001D01*
X443077Y223013D01*
X443154Y223005D01*
X443553Y223091D01*
X443956Y223157D01*
X444024Y223193D01*
X444100Y223210D01*
X444452Y223419D01*
X444812Y223610D01*
X444866Y223666D01*
X444932Y223706D01*
X445198Y224016D01*
X445480Y224312D01*
X445512Y224383D01*
X445563Y224442D01*
X445716Y224820D01*
X445888Y225191D01*
X445897Y225268D01*
X445926Y225340D01*
X445999Y226000D01*
X445999Y233799D01*
X454201Y242001D01*
X465799Y242001D01*
X474379Y233421D01*
X474442Y233375D01*
X474491Y233315D01*
X474835Y233093D01*
X475166Y232855D01*
X475240Y232832D01*
X475305Y232790D01*
X475701Y232690D01*
X476092Y232570D01*
X476169Y232572D01*
X476244Y232553D01*
X476651Y232585D01*
X477060Y232595D01*
X477133Y232622D01*
X477210Y232628D01*
X477586Y232787D01*
X477970Y232927D01*
X478030Y232976D01*
X478102Y233006D01*
X478621Y233421D01*
X487201Y242001D01*
X498799Y242001D01*
X506879Y233921D01*
X506943Y233875D01*
X506991Y233815D01*
X507163Y233704D01*
X507313Y233562D01*
X507499Y233475D01*
X507666Y233355D01*
X507741Y233332D01*
X507805Y233291D01*
X508003Y233241D01*
X508191Y233153D01*
X508395Y233131D01*
X508592Y233070D01*
X508670Y233072D01*
X508744Y233053D01*
X508948Y233069D01*
X509154Y233046D01*
X509355Y233090D01*
X509560Y233095D01*
X509634Y233122D01*
X509710Y233128D01*
X509898Y233207D01*
X510100Y233251D01*
X510277Y233357D01*
X510470Y233427D01*
X510531Y233476D01*
X510602Y233506D01*
X510821Y233681D01*
X510932Y233748D01*
X510994Y233819D01*
X511121Y233921D01*
X520201Y243001D01*
X531799Y243001D01*
X540001Y234799D01*
X540001Y228000D01*
X540013Y227923D01*
X540005Y227846D01*
X540091Y227446D01*
X540157Y227044D01*
X540193Y226975D01*
X540210Y226899D01*
X540419Y226548D01*
X540610Y226188D01*
X540666Y226134D01*
X540706Y226068D01*
X541016Y225802D01*
X541312Y225520D01*
X541383Y225487D01*
X541442Y225437D01*
X541820Y225284D01*
X542191Y225112D01*
X542268Y225103D01*
X542340Y225074D01*
X543000Y225001D01*
X543077Y225013D01*
X543154Y225005D01*
X543553Y225091D01*
X543956Y225157D01*
X544024Y225193D01*
X544100Y225210D01*
X544452Y225419D01*
X544812Y225610D01*
X544866Y225666D01*
X544932Y225706D01*
X545198Y226016D01*
X545480Y226312D01*
X545512Y226383D01*
X545563Y226442D01*
X545716Y226820D01*
X545888Y227191D01*
X545897Y227268D01*
X545926Y227340D01*
X545999Y228000D01*
X545999Y234799D01*
X554201Y243001D01*
X565799Y243001D01*
X574001Y234799D01*
X574001Y223201D01*
X565799Y214999D01*
X560000Y214999D01*
X559923Y214987D01*
X559846Y214995D01*
X559446Y214909D01*
X559044Y214843D01*
X558975Y214807D01*
X558899Y214790D01*
X558548Y214581D01*
X558188Y214390D01*
X558134Y214334D01*
X558068Y214294D01*
X557802Y213984D01*
X557520Y213688D01*
X557487Y213617D01*
X557437Y213558D01*
X557284Y213180D01*
X557112Y212809D01*
X557103Y212732D01*
X557074Y212660D01*
X557001Y212000D01*
X557001Y205201D01*
X548799Y196999D01*
X537201Y196999D01*
X529121Y205079D01*
X529057Y205125D01*
X529009Y205185D01*
X528837Y205296D01*
X528687Y205438D01*
X528501Y205525D01*
X528334Y205645D01*
X528259Y205668D01*
X528195Y205709D01*
X527997Y205759D01*
X527809Y205847D01*
X527605Y205869D01*
X527408Y205930D01*
X527330Y205928D01*
X527255Y205947D01*
X527052Y205931D01*
X526846Y205954D01*
X526645Y205910D01*
X526440Y205905D01*
X526366Y205878D01*
X526290Y205872D01*
X526102Y205792D01*
X525899Y205749D01*
X525723Y205643D01*
X525530Y205573D01*
X525469Y205524D01*
X525398Y205494D01*
X525179Y205319D01*
X525068Y205252D01*
X525006Y205181D01*
X524879Y205079D01*
X515799Y195999D01*
X504201Y195999D01*
X496121Y204079D01*
X496057Y204125D01*
X496009Y204185D01*
X495837Y204296D01*
X495687Y204438D01*
X495501Y204525D01*
X495334Y204645D01*
X495259Y204668D01*
X495195Y204709D01*
X494997Y204759D01*
X494809Y204847D01*
X494605Y204869D01*
X494408Y204930D01*
X494330Y204928D01*
X494255Y204947D01*
X494052Y204931D01*
X493846Y204954D01*
X493645Y204910D01*
X493440Y204905D01*
X493366Y204878D01*
X493290Y204872D01*
X493102Y204792D01*
X492899Y204749D01*
X492723Y204643D01*
X492530Y204573D01*
X492469Y204524D01*
X492398Y204494D01*
X492179Y204319D01*
X492068Y204252D01*
X492006Y204181D01*
X491879Y204079D01*
X482799Y194999D01*
X471201Y194999D01*
X462999Y203201D01*
X462999Y211000D01*
X462987Y211077D01*
X462995Y211154D01*
X462909Y211553D01*
X462843Y211956D01*
X462807Y212024D01*
X462790Y212100D01*
X462581Y212452D01*
X462390Y212812D01*
X462334Y212866D01*
X462294Y212932D01*
X461984Y213198D01*
X461688Y213480D01*
X461617Y213512D01*
X461558Y213563D01*
X461180Y213716D01*
X460809Y213888D01*
X460732Y213897D01*
X460660Y213926D01*
X460000Y213999D01*
X459000Y213999D01*
X458923Y213987D01*
X458846Y213995D01*
X458446Y213909D01*
X458044Y213843D01*
X457975Y213807D01*
X457899Y213790D01*
X457548Y213581D01*
X457188Y213390D01*
X457134Y213334D01*
X457068Y213294D01*
X456802Y212984D01*
X456520Y212688D01*
X456487Y212617D01*
X456437Y212558D01*
X456284Y212180D01*
X456112Y211809D01*
X456103Y211732D01*
X456074Y211660D01*
X456001Y211000D01*
X456001Y203201D01*
X447799Y194999D01*
X436201Y194999D01*
X427999Y203201D01*
X427999Y211000D01*
X427987Y211077D01*
X427995Y211154D01*
X427909Y211553D01*
X427843Y211956D01*
X427807Y212024D01*
X427790Y212100D01*
X427581Y212452D01*
X427390Y212812D01*
X427334Y212866D01*
X427294Y212932D01*
X426984Y213198D01*
X426688Y213480D01*
X426617Y213512D01*
X426558Y213563D01*
X426180Y213716D01*
X425809Y213888D01*
X425732Y213897D01*
X425660Y213926D01*
X425000Y213999D01*
X423000Y213999D01*
X422923Y213987D01*
X422846Y213995D01*
X422446Y213909D01*
X422044Y213843D01*
X421975Y213807D01*
X421899Y213790D01*
X421548Y213581D01*
X421188Y213390D01*
X421134Y213334D01*
X421068Y213294D01*
X420802Y212984D01*
X420520Y212688D01*
X420487Y212617D01*
X420437Y212558D01*
X420284Y212180D01*
X420112Y211809D01*
X420103Y211732D01*
X420074Y211660D01*
X420001Y211000D01*
X420001Y203201D01*
X411799Y194999D01*
X400201Y194999D01*
G37*
%LPD*%
%LPC*%
G36*
X841645Y-1133001D02*
X841645Y-1133001D01*
X826209Y-1126607D01*
X814393Y-1114791D01*
X807999Y-1099355D01*
X807999Y-1082645D01*
X814393Y-1067209D01*
X826209Y-1055393D01*
X841645Y-1048999D01*
X858355Y-1048999D01*
X873791Y-1055393D01*
X885607Y-1067209D01*
X892001Y-1082645D01*
X892001Y-1099355D01*
X885607Y-1114791D01*
X873791Y-1126607D01*
X858355Y-1133001D01*
X841645Y-1133001D01*
G37*
%LPD*%
%LPC*%
G36*
X741645Y-1133001D02*
X741645Y-1133001D01*
X726209Y-1126607D01*
X714393Y-1114791D01*
X707999Y-1099355D01*
X707999Y-1082645D01*
X714393Y-1067209D01*
X726209Y-1055393D01*
X741645Y-1048999D01*
X758355Y-1048999D01*
X773791Y-1055393D01*
X785607Y-1067209D01*
X792001Y-1082645D01*
X792001Y-1099355D01*
X785607Y-1114791D01*
X773791Y-1126607D01*
X758355Y-1133001D01*
X741645Y-1133001D01*
G37*
%LPD*%
%LPC*%
G36*
X641645Y-1133001D02*
X641645Y-1133001D01*
X626209Y-1126607D01*
X614393Y-1114791D01*
X607999Y-1099355D01*
X607999Y-1082645D01*
X614393Y-1067209D01*
X626209Y-1055393D01*
X641645Y-1048999D01*
X658355Y-1048999D01*
X673791Y-1055393D01*
X685607Y-1067209D01*
X692001Y-1082645D01*
X692001Y-1099355D01*
X685607Y-1114791D01*
X673791Y-1126607D01*
X658355Y-1133001D01*
X641645Y-1133001D01*
G37*
%LPD*%
%LPC*%
G36*
X441645Y-1133001D02*
X441645Y-1133001D01*
X426209Y-1126607D01*
X414393Y-1114791D01*
X407999Y-1099355D01*
X407999Y-1082645D01*
X414393Y-1067209D01*
X426209Y-1055393D01*
X441645Y-1048999D01*
X458355Y-1048999D01*
X473791Y-1055393D01*
X485607Y-1067209D01*
X492001Y-1082645D01*
X492001Y-1099355D01*
X485607Y-1114791D01*
X473791Y-1126607D01*
X458355Y-1133001D01*
X441645Y-1133001D01*
G37*
%LPD*%
%LPC*%
G36*
X341645Y-1133001D02*
X341645Y-1133001D01*
X326209Y-1126607D01*
X314393Y-1114791D01*
X307999Y-1099355D01*
X307999Y-1082645D01*
X314393Y-1067209D01*
X326209Y-1055393D01*
X341645Y-1048999D01*
X358355Y-1048999D01*
X373791Y-1055393D01*
X385607Y-1067209D01*
X392001Y-1082645D01*
X392001Y-1099355D01*
X385607Y-1114791D01*
X373791Y-1126607D01*
X358355Y-1133001D01*
X341645Y-1133001D01*
G37*
%LPD*%
%LPC*%
G36*
X241645Y-1133001D02*
X241645Y-1133001D01*
X226209Y-1126607D01*
X214393Y-1114791D01*
X207999Y-1099355D01*
X207999Y-1082645D01*
X214393Y-1067209D01*
X226209Y-1055393D01*
X241645Y-1048999D01*
X258355Y-1048999D01*
X273791Y-1055393D01*
X285607Y-1067209D01*
X292001Y-1082645D01*
X292001Y-1099355D01*
X285607Y-1114791D01*
X273791Y-1126607D01*
X258355Y-1133001D01*
X241645Y-1133001D01*
G37*
%LPD*%
%LPC*%
G36*
X141645Y-1133001D02*
X141645Y-1133001D01*
X126209Y-1126607D01*
X114393Y-1114791D01*
X107999Y-1099355D01*
X107999Y-1082645D01*
X114393Y-1067209D01*
X126209Y-1055393D01*
X141645Y-1048999D01*
X158355Y-1048999D01*
X173791Y-1055393D01*
X185607Y-1067209D01*
X192001Y-1082645D01*
X192001Y-1099355D01*
X185607Y-1114791D01*
X173791Y-1126607D01*
X158355Y-1133001D01*
X141645Y-1133001D01*
G37*
%LPD*%
%LPC*%
G36*
X541645Y-1133001D02*
X541645Y-1133001D01*
X526209Y-1126607D01*
X514393Y-1114791D01*
X507999Y-1099355D01*
X507999Y-1082645D01*
X514393Y-1067209D01*
X526209Y-1055393D01*
X541645Y-1048999D01*
X558355Y-1048999D01*
X573791Y-1055393D01*
X585607Y-1067209D01*
X592001Y-1082645D01*
X592001Y-1099355D01*
X585607Y-1114791D01*
X573791Y-1126607D01*
X558355Y-1133001D01*
X541645Y-1133001D01*
G37*
%LPD*%
%LPC*%
G36*
X141645Y-1233001D02*
X141645Y-1233001D01*
X126209Y-1226607D01*
X114393Y-1214791D01*
X107999Y-1199355D01*
X107999Y-1182645D01*
X114393Y-1167209D01*
X126209Y-1155393D01*
X141645Y-1148999D01*
X158355Y-1148999D01*
X173791Y-1155393D01*
X185607Y-1167209D01*
X192001Y-1182645D01*
X192001Y-1199355D01*
X185607Y-1214791D01*
X173791Y-1226607D01*
X158355Y-1233001D01*
X141645Y-1233001D01*
G37*
%LPD*%
%LPC*%
G36*
X841645Y-1233001D02*
X841645Y-1233001D01*
X826209Y-1226607D01*
X814393Y-1214791D01*
X807999Y-1199355D01*
X807999Y-1182645D01*
X814393Y-1167209D01*
X826209Y-1155393D01*
X841645Y-1148999D01*
X858355Y-1148999D01*
X873791Y-1155393D01*
X885607Y-1167209D01*
X892001Y-1182645D01*
X892001Y-1199355D01*
X885607Y-1214791D01*
X873791Y-1226607D01*
X858355Y-1233001D01*
X841645Y-1233001D01*
G37*
%LPD*%
%LPC*%
G36*
X741645Y-1233001D02*
X741645Y-1233001D01*
X726209Y-1226607D01*
X714393Y-1214791D01*
X707999Y-1199355D01*
X707999Y-1182645D01*
X714393Y-1167209D01*
X726209Y-1155393D01*
X741645Y-1148999D01*
X758355Y-1148999D01*
X773791Y-1155393D01*
X785607Y-1167209D01*
X792001Y-1182645D01*
X792001Y-1199355D01*
X785607Y-1214791D01*
X773791Y-1226607D01*
X758355Y-1233001D01*
X741645Y-1233001D01*
G37*
%LPD*%
%LPC*%
G36*
X641645Y-1233001D02*
X641645Y-1233001D01*
X626209Y-1226607D01*
X614393Y-1214791D01*
X607999Y-1199355D01*
X607999Y-1182645D01*
X614393Y-1167209D01*
X626209Y-1155393D01*
X641645Y-1148999D01*
X658355Y-1148999D01*
X673791Y-1155393D01*
X685607Y-1167209D01*
X692001Y-1182645D01*
X692001Y-1199355D01*
X685607Y-1214791D01*
X673791Y-1226607D01*
X658355Y-1233001D01*
X641645Y-1233001D01*
G37*
%LPD*%
%LPC*%
G36*
X541645Y-1233001D02*
X541645Y-1233001D01*
X526209Y-1226607D01*
X514393Y-1214791D01*
X507999Y-1199355D01*
X507999Y-1182645D01*
X514393Y-1167209D01*
X526209Y-1155393D01*
X541645Y-1148999D01*
X558355Y-1148999D01*
X573791Y-1155393D01*
X585607Y-1167209D01*
X592001Y-1182645D01*
X592001Y-1199355D01*
X585607Y-1214791D01*
X573791Y-1226607D01*
X558355Y-1233001D01*
X541645Y-1233001D01*
G37*
%LPD*%
%LPC*%
G36*
X441645Y-1233001D02*
X441645Y-1233001D01*
X426209Y-1226607D01*
X414393Y-1214791D01*
X407999Y-1199355D01*
X407999Y-1182645D01*
X414393Y-1167209D01*
X426209Y-1155393D01*
X441645Y-1148999D01*
X458355Y-1148999D01*
X473791Y-1155393D01*
X485607Y-1167209D01*
X492001Y-1182645D01*
X492001Y-1199355D01*
X485607Y-1214791D01*
X473791Y-1226607D01*
X458355Y-1233001D01*
X441645Y-1233001D01*
G37*
%LPD*%
%LPC*%
G36*
X341645Y-1233001D02*
X341645Y-1233001D01*
X326209Y-1226607D01*
X314393Y-1214791D01*
X307999Y-1199355D01*
X307999Y-1182645D01*
X314393Y-1167209D01*
X326209Y-1155393D01*
X341645Y-1148999D01*
X358355Y-1148999D01*
X373791Y-1155393D01*
X385607Y-1167209D01*
X392001Y-1182645D01*
X392001Y-1199355D01*
X385607Y-1214791D01*
X373791Y-1226607D01*
X358355Y-1233001D01*
X341645Y-1233001D01*
G37*
%LPD*%
%LPC*%
G36*
X255999Y-1196999D02*
X255999Y-1196999D01*
X296636Y-1196999D01*
X295843Y-1202006D01*
X293557Y-1209042D01*
X290199Y-1215634D01*
X285850Y-1221619D01*
X280619Y-1226850D01*
X274634Y-1231199D01*
X268042Y-1234557D01*
X261006Y-1236843D01*
X255999Y-1237636D01*
X255999Y-1196999D01*
G37*
%LPD*%
%LPC*%
G36*
X255999Y-1185001D02*
X255999Y-1185001D01*
X255999Y-1144364D01*
X261006Y-1145157D01*
X268042Y-1147443D01*
X274634Y-1150801D01*
X280619Y-1155150D01*
X285850Y-1160381D01*
X290199Y-1166366D01*
X293557Y-1172958D01*
X295843Y-1179994D01*
X296636Y-1185001D01*
X255999Y-1185001D01*
G37*
%LPD*%
%LPC*%
G36*
X238994Y-1236843D02*
X238994Y-1236843D01*
X231958Y-1234557D01*
X225366Y-1231199D01*
X219381Y-1226850D01*
X214150Y-1221619D01*
X209801Y-1215634D01*
X206443Y-1209042D01*
X204157Y-1202006D01*
X203364Y-1196999D01*
X244001Y-1196999D01*
X244001Y-1237636D01*
X238994Y-1236843D01*
G37*
%LPD*%
%LPC*%
G36*
X203364Y-1185001D02*
X203364Y-1185001D01*
X204157Y-1179994D01*
X206443Y-1172958D01*
X209801Y-1166366D01*
X214150Y-1160381D01*
X219381Y-1155150D01*
X225366Y-1150801D01*
X231958Y-1147443D01*
X238994Y-1145157D01*
X244001Y-1144364D01*
X244001Y-1185001D01*
X203364Y-1185001D01*
G37*
%LPD*%
%LPC*%
G36*
X380201Y352999D02*
X380201Y352999D01*
X371999Y361201D01*
X371999Y372799D01*
X380201Y381001D01*
X391799Y381001D01*
X400001Y372799D01*
X400001Y361201D01*
X391799Y352999D01*
X380201Y352999D01*
G37*
%LPD*%
%LPC*%
G36*
X249999Y-1191001D02*
X249999Y-1191001D01*
X249999Y-1190999D01*
X250001Y-1190999D01*
X250001Y-1191001D01*
X249999Y-1191001D01*
G37*
%LPD*%
D10*
X150000Y-1191000D03*
X150000Y-1091000D03*
X250000Y-1191000D03*
X250000Y-1091000D03*
X350000Y-1191000D03*
X350000Y-1091000D03*
X450000Y-1191000D03*
X450000Y-1091000D03*
X550000Y-1191000D03*
X550000Y-1091000D03*
X650000Y-1191000D03*
X650000Y-1091000D03*
X750000Y-1191000D03*
X750000Y-1091000D03*
X850000Y-1191000D03*
X850000Y-1091000D03*
D11*
X505000Y363000D03*
X406000Y209000D03*
X424000Y228000D03*
X442000Y209000D03*
X460000Y228000D03*
X477000Y209000D03*
X493000Y228000D03*
X510000Y210000D03*
X526000Y229000D03*
X543000Y211000D03*
X560000Y229000D03*
X386000Y367000D03*
M02*
