G04 EAGLE Gerber X2 export*
%TF.Part,Single*%
%TF.FileFunction,Soldermask,Top*%
%TF.FilePolarity,Positive*%
%TF.GenerationSoftware,Autodesk,EAGLE,9.5.2*%
%TF.CreationDate,2020-06-03T15:06:04Z*%
G75*
%MOIN*%
%FSLAX36Y36*%
%LPD*%
%INTop Solder Mask*%
%AMOC8*
5,1,8,0,0,1.08239X$1,22.5*%
G01*
%ADD10C,0.130984*%
%ADD11R,0.084000X0.084000*%
%ADD12R,0.013000X0.013000*%
%ADD13R,0.030000X0.055000*%
%ADD14C,0.079000*%
%ADD15R,0.032559X0.028622*%


D10*
X-150000Y-1250000D03*
X1150000Y-1250000D03*
X-150000Y0D03*
X1150000Y0D03*
D11*
X499000Y519000D03*
D10*
X-150000Y625000D03*
X1150000Y625000D03*
D12*
X427500Y338000D03*
X440500Y338000D03*
X453500Y338000D03*
X466500Y338000D03*
X479500Y338000D03*
X492500Y338000D03*
X505500Y338000D03*
X518500Y338000D03*
X531500Y338000D03*
X544500Y338000D03*
X557500Y338000D03*
X570500Y338000D03*
X427500Y264000D03*
X440500Y264000D03*
X453500Y264000D03*
X466500Y264000D03*
X479500Y264000D03*
X492500Y264000D03*
X505500Y264000D03*
X518500Y264000D03*
X531500Y264000D03*
X544500Y264000D03*
X557500Y264000D03*
X570500Y264000D03*
D13*
X420260Y519000D03*
X577740Y519000D03*
D14*
X150000Y-1191000D03*
X150000Y-1091000D03*
X250000Y-1191000D03*
X250000Y-1091000D03*
X350000Y-1191000D03*
X350000Y-1091000D03*
X450000Y-1191000D03*
X450000Y-1091000D03*
X550000Y-1191000D03*
X550000Y-1091000D03*
X650000Y-1191000D03*
X650000Y-1091000D03*
X750000Y-1191000D03*
X750000Y-1091000D03*
X850000Y-1191000D03*
X850000Y-1091000D03*
D15*
X666000Y-879685D03*
X666000Y-840315D03*
X611000Y-879685D03*
X611000Y-840315D03*
X556000Y-879685D03*
X556000Y-840315D03*
X501000Y-879685D03*
X501000Y-840315D03*
X446000Y-879685D03*
X446000Y-840315D03*
X391000Y-879685D03*
X391000Y-840315D03*
X336000Y-879685D03*
X336000Y-840315D03*
X281000Y-879685D03*
X281000Y-840315D03*
X721000Y-879685D03*
X721000Y-840315D03*
M02*
